G75*
%MOIN*%
%OFA0B0*%
%FSLAX24Y24*%
%IPPOS*%
%LPD*%
%AMOC8*
5,1,8,0,0,1.08239X$1,22.5*
%
%ADD10R,0.0789X0.0710*%
%ADD11R,0.0474X0.1241*%
%ADD12R,0.0710X0.0789*%
%ADD13R,0.1241X0.0474*%
%ADD14R,0.0749X0.0789*%
%ADD15R,0.0789X0.0749*%
%ADD16C,0.0680*%
%ADD17OC8,0.0600*%
%ADD18R,0.0710X0.0790*%
%ADD19R,0.0907X0.0907*%
%ADD20C,0.1261*%
%ADD21C,0.0725*%
%ADD22R,0.0980X0.0980*%
%ADD23C,0.1661*%
%ADD24OC8,0.0710*%
%ADD25R,0.0640X0.0640*%
%ADD26C,0.1346*%
D10*
X015100Y020049D03*
X015100Y021151D03*
X015100Y023049D03*
X015100Y024151D03*
X028600Y028049D03*
X028600Y029151D03*
D11*
X028600Y023545D03*
X028600Y021655D03*
X028600Y018045D03*
X028600Y016155D03*
X028600Y012545D03*
X028600Y010655D03*
X028600Y007045D03*
X028600Y005155D03*
D12*
X011151Y009100D03*
X010049Y009100D03*
D13*
X016155Y009600D03*
X018045Y009600D03*
D14*
X026100Y010793D03*
X026100Y012407D03*
X026100Y016293D03*
X026100Y017907D03*
X026100Y021793D03*
X026100Y023407D03*
X026600Y027793D03*
X026600Y029407D03*
X013100Y022907D03*
X013100Y021293D03*
X026100Y006907D03*
X026100Y005293D03*
D15*
X017907Y012100D03*
X016293Y012100D03*
X011407Y011600D03*
X009793Y011600D03*
D16*
X009600Y014300D02*
X009600Y014900D01*
X011600Y014900D02*
X011600Y014300D01*
X016100Y014300D02*
X016100Y014900D01*
X018100Y014900D02*
X018100Y014300D01*
X022800Y012600D02*
X023400Y012600D01*
X023400Y010600D02*
X022800Y010600D01*
X022800Y007100D02*
X023400Y007100D01*
X023400Y005100D02*
X022800Y005100D01*
X022800Y016100D02*
X023400Y016100D01*
X023400Y018100D02*
X022800Y018100D01*
X022800Y021600D02*
X023400Y021600D01*
X023400Y023600D02*
X022800Y023600D01*
X023800Y026600D02*
X024400Y026600D01*
X024400Y028600D02*
X023800Y028600D01*
X018400Y024100D02*
X017800Y024100D01*
X017800Y023100D02*
X018400Y023100D01*
X018400Y022100D02*
X017800Y022100D01*
X010400Y021600D02*
X009800Y021600D01*
X009800Y023600D02*
X010400Y023600D01*
D17*
X011600Y035100D03*
X012600Y035100D03*
X007100Y035100D03*
X006100Y035100D03*
D18*
X007040Y031600D03*
X008160Y031600D03*
X010540Y031600D03*
X011660Y031600D03*
D19*
X033350Y023683D03*
X033350Y021517D03*
X033350Y018183D03*
X033350Y016017D03*
X033350Y012683D03*
X033350Y010517D03*
X033350Y007183D03*
X033350Y005017D03*
X018183Y003100D03*
X016017Y003100D03*
X011683Y003100D03*
X009517Y003100D03*
D20*
X011502Y001250D03*
X011502Y004950D03*
X018002Y004950D03*
X018002Y001250D03*
X031500Y005198D03*
X035200Y005198D03*
X035200Y010698D03*
X031500Y010698D03*
X031500Y016198D03*
X035200Y016198D03*
X035200Y021698D03*
X031500Y021698D03*
X020074Y028348D03*
X020074Y029600D03*
X017126Y029600D03*
X017126Y028348D03*
D21*
X006423Y028600D02*
X005778Y028600D01*
X005778Y029600D02*
X006423Y029600D01*
X006423Y023600D02*
X005778Y023600D01*
X005778Y022600D02*
X006423Y022600D01*
X006423Y017600D02*
X005778Y017600D01*
X005778Y016600D02*
X006423Y016600D01*
X006423Y011600D02*
X005778Y011600D01*
X005778Y010600D02*
X006423Y010600D01*
X030278Y028100D02*
X030923Y028100D01*
X030923Y029100D02*
X030278Y029100D01*
D22*
X031100Y033600D03*
X025100Y033600D03*
D23*
X021944Y034769D03*
X015256Y034769D03*
D24*
X010100Y028100D03*
X010100Y027100D03*
X010100Y026100D03*
X010100Y025100D03*
X009100Y025100D03*
X009100Y026100D03*
X009100Y027100D03*
X009100Y028100D03*
X011100Y027100D03*
X011100Y026100D03*
X011100Y025100D03*
X012100Y025100D03*
X012100Y026100D03*
X012100Y020100D03*
X013100Y020100D03*
X013100Y019100D03*
X012100Y019100D03*
X012100Y018100D03*
X011100Y018100D03*
X011100Y019100D03*
X011100Y020100D03*
X010100Y020100D03*
X010100Y019100D03*
X010100Y018100D03*
X009100Y018100D03*
X009100Y019100D03*
X009100Y020100D03*
X024100Y020100D03*
X024100Y019100D03*
X025100Y019100D03*
X025100Y020100D03*
X026100Y020100D03*
X026100Y019100D03*
X027100Y019100D03*
X027100Y020100D03*
X027100Y014600D03*
X027100Y013600D03*
X026100Y013600D03*
X026100Y014600D03*
X025100Y014600D03*
X025100Y013600D03*
X024100Y013600D03*
X024100Y014600D03*
X024100Y009100D03*
X024100Y008100D03*
X025100Y008100D03*
X025100Y009100D03*
X026100Y009100D03*
X026100Y008100D03*
X027100Y008100D03*
X027100Y009100D03*
D25*
X009100Y029600D03*
D26*
X002100Y002100D03*
X034600Y002100D03*
X034600Y035100D03*
X002100Y035100D03*
M02*
