G75*
%MOIN*%
%OFA0B0*%
%FSLAX24Y24*%
%IPPOS*%
%LPD*%
%AMOC8*
5,1,8,0,0,1.08239X$1,22.5*
%
%ADD10C,0.0000*%
%ADD11C,0.0070*%
%ADD12C,0.0160*%
%ADD13C,0.0040*%
%ADD14C,0.0080*%
%ADD15C,0.0010*%
%ADD16C,0.0100*%
%ADD17C,0.0050*%
%ADD18R,0.0827X0.0118*%
%ADD19R,0.0118X0.0827*%
%ADD20C,0.0060*%
%ADD21C,0.0200*%
%ADD22R,0.0250X0.4200*%
%ADD23R,0.0250X0.0750*%
%ADD24R,0.0250X0.0300*%
%ADD25C,0.0020*%
%ADD26C,0.0120*%
D10*
X000100Y000100D02*
X000100Y037096D01*
X036470Y037096D01*
X036470Y000100D01*
X000100Y000100D01*
X010911Y001250D02*
X010913Y001298D01*
X010919Y001346D01*
X010929Y001393D01*
X010942Y001439D01*
X010960Y001484D01*
X010980Y001528D01*
X011005Y001570D01*
X011033Y001609D01*
X011063Y001646D01*
X011097Y001680D01*
X011134Y001712D01*
X011172Y001741D01*
X011213Y001766D01*
X011256Y001788D01*
X011301Y001806D01*
X011347Y001820D01*
X011394Y001831D01*
X011442Y001838D01*
X011490Y001841D01*
X011538Y001840D01*
X011586Y001835D01*
X011634Y001826D01*
X011680Y001814D01*
X011725Y001797D01*
X011769Y001777D01*
X011811Y001754D01*
X011851Y001727D01*
X011889Y001697D01*
X011924Y001664D01*
X011956Y001628D01*
X011986Y001590D01*
X012012Y001549D01*
X012034Y001506D01*
X012054Y001462D01*
X012069Y001417D01*
X012081Y001370D01*
X012089Y001322D01*
X012093Y001274D01*
X012093Y001226D01*
X012089Y001178D01*
X012081Y001130D01*
X012069Y001083D01*
X012054Y001038D01*
X012034Y000994D01*
X012012Y000951D01*
X011986Y000910D01*
X011956Y000872D01*
X011924Y000836D01*
X011889Y000803D01*
X011851Y000773D01*
X011811Y000746D01*
X011769Y000723D01*
X011725Y000703D01*
X011680Y000686D01*
X011634Y000674D01*
X011586Y000665D01*
X011538Y000660D01*
X011490Y000659D01*
X011442Y000662D01*
X011394Y000669D01*
X011347Y000680D01*
X011301Y000694D01*
X011256Y000712D01*
X011213Y000734D01*
X011172Y000759D01*
X011134Y000788D01*
X011097Y000820D01*
X011063Y000854D01*
X011033Y000891D01*
X011005Y000930D01*
X010980Y000972D01*
X010960Y001016D01*
X010942Y001061D01*
X010929Y001107D01*
X010919Y001154D01*
X010913Y001202D01*
X010911Y001250D01*
X010911Y004950D02*
X010913Y004998D01*
X010919Y005046D01*
X010929Y005093D01*
X010942Y005139D01*
X010960Y005184D01*
X010980Y005228D01*
X011005Y005270D01*
X011033Y005309D01*
X011063Y005346D01*
X011097Y005380D01*
X011134Y005412D01*
X011172Y005441D01*
X011213Y005466D01*
X011256Y005488D01*
X011301Y005506D01*
X011347Y005520D01*
X011394Y005531D01*
X011442Y005538D01*
X011490Y005541D01*
X011538Y005540D01*
X011586Y005535D01*
X011634Y005526D01*
X011680Y005514D01*
X011725Y005497D01*
X011769Y005477D01*
X011811Y005454D01*
X011851Y005427D01*
X011889Y005397D01*
X011924Y005364D01*
X011956Y005328D01*
X011986Y005290D01*
X012012Y005249D01*
X012034Y005206D01*
X012054Y005162D01*
X012069Y005117D01*
X012081Y005070D01*
X012089Y005022D01*
X012093Y004974D01*
X012093Y004926D01*
X012089Y004878D01*
X012081Y004830D01*
X012069Y004783D01*
X012054Y004738D01*
X012034Y004694D01*
X012012Y004651D01*
X011986Y004610D01*
X011956Y004572D01*
X011924Y004536D01*
X011889Y004503D01*
X011851Y004473D01*
X011811Y004446D01*
X011769Y004423D01*
X011725Y004403D01*
X011680Y004386D01*
X011634Y004374D01*
X011586Y004365D01*
X011538Y004360D01*
X011490Y004359D01*
X011442Y004362D01*
X011394Y004369D01*
X011347Y004380D01*
X011301Y004394D01*
X011256Y004412D01*
X011213Y004434D01*
X011172Y004459D01*
X011134Y004488D01*
X011097Y004520D01*
X011063Y004554D01*
X011033Y004591D01*
X011005Y004630D01*
X010980Y004672D01*
X010960Y004716D01*
X010942Y004761D01*
X010929Y004807D01*
X010919Y004854D01*
X010913Y004902D01*
X010911Y004950D01*
X017411Y004950D02*
X017413Y004998D01*
X017419Y005046D01*
X017429Y005093D01*
X017442Y005139D01*
X017460Y005184D01*
X017480Y005228D01*
X017505Y005270D01*
X017533Y005309D01*
X017563Y005346D01*
X017597Y005380D01*
X017634Y005412D01*
X017672Y005441D01*
X017713Y005466D01*
X017756Y005488D01*
X017801Y005506D01*
X017847Y005520D01*
X017894Y005531D01*
X017942Y005538D01*
X017990Y005541D01*
X018038Y005540D01*
X018086Y005535D01*
X018134Y005526D01*
X018180Y005514D01*
X018225Y005497D01*
X018269Y005477D01*
X018311Y005454D01*
X018351Y005427D01*
X018389Y005397D01*
X018424Y005364D01*
X018456Y005328D01*
X018486Y005290D01*
X018512Y005249D01*
X018534Y005206D01*
X018554Y005162D01*
X018569Y005117D01*
X018581Y005070D01*
X018589Y005022D01*
X018593Y004974D01*
X018593Y004926D01*
X018589Y004878D01*
X018581Y004830D01*
X018569Y004783D01*
X018554Y004738D01*
X018534Y004694D01*
X018512Y004651D01*
X018486Y004610D01*
X018456Y004572D01*
X018424Y004536D01*
X018389Y004503D01*
X018351Y004473D01*
X018311Y004446D01*
X018269Y004423D01*
X018225Y004403D01*
X018180Y004386D01*
X018134Y004374D01*
X018086Y004365D01*
X018038Y004360D01*
X017990Y004359D01*
X017942Y004362D01*
X017894Y004369D01*
X017847Y004380D01*
X017801Y004394D01*
X017756Y004412D01*
X017713Y004434D01*
X017672Y004459D01*
X017634Y004488D01*
X017597Y004520D01*
X017563Y004554D01*
X017533Y004591D01*
X017505Y004630D01*
X017480Y004672D01*
X017460Y004716D01*
X017442Y004761D01*
X017429Y004807D01*
X017419Y004854D01*
X017413Y004902D01*
X017411Y004950D01*
X017411Y001250D02*
X017413Y001298D01*
X017419Y001346D01*
X017429Y001393D01*
X017442Y001439D01*
X017460Y001484D01*
X017480Y001528D01*
X017505Y001570D01*
X017533Y001609D01*
X017563Y001646D01*
X017597Y001680D01*
X017634Y001712D01*
X017672Y001741D01*
X017713Y001766D01*
X017756Y001788D01*
X017801Y001806D01*
X017847Y001820D01*
X017894Y001831D01*
X017942Y001838D01*
X017990Y001841D01*
X018038Y001840D01*
X018086Y001835D01*
X018134Y001826D01*
X018180Y001814D01*
X018225Y001797D01*
X018269Y001777D01*
X018311Y001754D01*
X018351Y001727D01*
X018389Y001697D01*
X018424Y001664D01*
X018456Y001628D01*
X018486Y001590D01*
X018512Y001549D01*
X018534Y001506D01*
X018554Y001462D01*
X018569Y001417D01*
X018581Y001370D01*
X018589Y001322D01*
X018593Y001274D01*
X018593Y001226D01*
X018589Y001178D01*
X018581Y001130D01*
X018569Y001083D01*
X018554Y001038D01*
X018534Y000994D01*
X018512Y000951D01*
X018486Y000910D01*
X018456Y000872D01*
X018424Y000836D01*
X018389Y000803D01*
X018351Y000773D01*
X018311Y000746D01*
X018269Y000723D01*
X018225Y000703D01*
X018180Y000686D01*
X018134Y000674D01*
X018086Y000665D01*
X018038Y000660D01*
X017990Y000659D01*
X017942Y000662D01*
X017894Y000669D01*
X017847Y000680D01*
X017801Y000694D01*
X017756Y000712D01*
X017713Y000734D01*
X017672Y000759D01*
X017634Y000788D01*
X017597Y000820D01*
X017563Y000854D01*
X017533Y000891D01*
X017505Y000930D01*
X017480Y000972D01*
X017460Y001016D01*
X017442Y001061D01*
X017429Y001107D01*
X017419Y001154D01*
X017413Y001202D01*
X017411Y001250D01*
X030909Y005198D02*
X030911Y005246D01*
X030917Y005294D01*
X030927Y005341D01*
X030940Y005387D01*
X030958Y005432D01*
X030978Y005476D01*
X031003Y005518D01*
X031031Y005557D01*
X031061Y005594D01*
X031095Y005628D01*
X031132Y005660D01*
X031170Y005689D01*
X031211Y005714D01*
X031254Y005736D01*
X031299Y005754D01*
X031345Y005768D01*
X031392Y005779D01*
X031440Y005786D01*
X031488Y005789D01*
X031536Y005788D01*
X031584Y005783D01*
X031632Y005774D01*
X031678Y005762D01*
X031723Y005745D01*
X031767Y005725D01*
X031809Y005702D01*
X031849Y005675D01*
X031887Y005645D01*
X031922Y005612D01*
X031954Y005576D01*
X031984Y005538D01*
X032010Y005497D01*
X032032Y005454D01*
X032052Y005410D01*
X032067Y005365D01*
X032079Y005318D01*
X032087Y005270D01*
X032091Y005222D01*
X032091Y005174D01*
X032087Y005126D01*
X032079Y005078D01*
X032067Y005031D01*
X032052Y004986D01*
X032032Y004942D01*
X032010Y004899D01*
X031984Y004858D01*
X031954Y004820D01*
X031922Y004784D01*
X031887Y004751D01*
X031849Y004721D01*
X031809Y004694D01*
X031767Y004671D01*
X031723Y004651D01*
X031678Y004634D01*
X031632Y004622D01*
X031584Y004613D01*
X031536Y004608D01*
X031488Y004607D01*
X031440Y004610D01*
X031392Y004617D01*
X031345Y004628D01*
X031299Y004642D01*
X031254Y004660D01*
X031211Y004682D01*
X031170Y004707D01*
X031132Y004736D01*
X031095Y004768D01*
X031061Y004802D01*
X031031Y004839D01*
X031003Y004878D01*
X030978Y004920D01*
X030958Y004964D01*
X030940Y005009D01*
X030927Y005055D01*
X030917Y005102D01*
X030911Y005150D01*
X030909Y005198D01*
X034609Y005198D02*
X034611Y005246D01*
X034617Y005294D01*
X034627Y005341D01*
X034640Y005387D01*
X034658Y005432D01*
X034678Y005476D01*
X034703Y005518D01*
X034731Y005557D01*
X034761Y005594D01*
X034795Y005628D01*
X034832Y005660D01*
X034870Y005689D01*
X034911Y005714D01*
X034954Y005736D01*
X034999Y005754D01*
X035045Y005768D01*
X035092Y005779D01*
X035140Y005786D01*
X035188Y005789D01*
X035236Y005788D01*
X035284Y005783D01*
X035332Y005774D01*
X035378Y005762D01*
X035423Y005745D01*
X035467Y005725D01*
X035509Y005702D01*
X035549Y005675D01*
X035587Y005645D01*
X035622Y005612D01*
X035654Y005576D01*
X035684Y005538D01*
X035710Y005497D01*
X035732Y005454D01*
X035752Y005410D01*
X035767Y005365D01*
X035779Y005318D01*
X035787Y005270D01*
X035791Y005222D01*
X035791Y005174D01*
X035787Y005126D01*
X035779Y005078D01*
X035767Y005031D01*
X035752Y004986D01*
X035732Y004942D01*
X035710Y004899D01*
X035684Y004858D01*
X035654Y004820D01*
X035622Y004784D01*
X035587Y004751D01*
X035549Y004721D01*
X035509Y004694D01*
X035467Y004671D01*
X035423Y004651D01*
X035378Y004634D01*
X035332Y004622D01*
X035284Y004613D01*
X035236Y004608D01*
X035188Y004607D01*
X035140Y004610D01*
X035092Y004617D01*
X035045Y004628D01*
X034999Y004642D01*
X034954Y004660D01*
X034911Y004682D01*
X034870Y004707D01*
X034832Y004736D01*
X034795Y004768D01*
X034761Y004802D01*
X034731Y004839D01*
X034703Y004878D01*
X034678Y004920D01*
X034658Y004964D01*
X034640Y005009D01*
X034627Y005055D01*
X034617Y005102D01*
X034611Y005150D01*
X034609Y005198D01*
X034609Y010698D02*
X034611Y010746D01*
X034617Y010794D01*
X034627Y010841D01*
X034640Y010887D01*
X034658Y010932D01*
X034678Y010976D01*
X034703Y011018D01*
X034731Y011057D01*
X034761Y011094D01*
X034795Y011128D01*
X034832Y011160D01*
X034870Y011189D01*
X034911Y011214D01*
X034954Y011236D01*
X034999Y011254D01*
X035045Y011268D01*
X035092Y011279D01*
X035140Y011286D01*
X035188Y011289D01*
X035236Y011288D01*
X035284Y011283D01*
X035332Y011274D01*
X035378Y011262D01*
X035423Y011245D01*
X035467Y011225D01*
X035509Y011202D01*
X035549Y011175D01*
X035587Y011145D01*
X035622Y011112D01*
X035654Y011076D01*
X035684Y011038D01*
X035710Y010997D01*
X035732Y010954D01*
X035752Y010910D01*
X035767Y010865D01*
X035779Y010818D01*
X035787Y010770D01*
X035791Y010722D01*
X035791Y010674D01*
X035787Y010626D01*
X035779Y010578D01*
X035767Y010531D01*
X035752Y010486D01*
X035732Y010442D01*
X035710Y010399D01*
X035684Y010358D01*
X035654Y010320D01*
X035622Y010284D01*
X035587Y010251D01*
X035549Y010221D01*
X035509Y010194D01*
X035467Y010171D01*
X035423Y010151D01*
X035378Y010134D01*
X035332Y010122D01*
X035284Y010113D01*
X035236Y010108D01*
X035188Y010107D01*
X035140Y010110D01*
X035092Y010117D01*
X035045Y010128D01*
X034999Y010142D01*
X034954Y010160D01*
X034911Y010182D01*
X034870Y010207D01*
X034832Y010236D01*
X034795Y010268D01*
X034761Y010302D01*
X034731Y010339D01*
X034703Y010378D01*
X034678Y010420D01*
X034658Y010464D01*
X034640Y010509D01*
X034627Y010555D01*
X034617Y010602D01*
X034611Y010650D01*
X034609Y010698D01*
X030909Y010698D02*
X030911Y010746D01*
X030917Y010794D01*
X030927Y010841D01*
X030940Y010887D01*
X030958Y010932D01*
X030978Y010976D01*
X031003Y011018D01*
X031031Y011057D01*
X031061Y011094D01*
X031095Y011128D01*
X031132Y011160D01*
X031170Y011189D01*
X031211Y011214D01*
X031254Y011236D01*
X031299Y011254D01*
X031345Y011268D01*
X031392Y011279D01*
X031440Y011286D01*
X031488Y011289D01*
X031536Y011288D01*
X031584Y011283D01*
X031632Y011274D01*
X031678Y011262D01*
X031723Y011245D01*
X031767Y011225D01*
X031809Y011202D01*
X031849Y011175D01*
X031887Y011145D01*
X031922Y011112D01*
X031954Y011076D01*
X031984Y011038D01*
X032010Y010997D01*
X032032Y010954D01*
X032052Y010910D01*
X032067Y010865D01*
X032079Y010818D01*
X032087Y010770D01*
X032091Y010722D01*
X032091Y010674D01*
X032087Y010626D01*
X032079Y010578D01*
X032067Y010531D01*
X032052Y010486D01*
X032032Y010442D01*
X032010Y010399D01*
X031984Y010358D01*
X031954Y010320D01*
X031922Y010284D01*
X031887Y010251D01*
X031849Y010221D01*
X031809Y010194D01*
X031767Y010171D01*
X031723Y010151D01*
X031678Y010134D01*
X031632Y010122D01*
X031584Y010113D01*
X031536Y010108D01*
X031488Y010107D01*
X031440Y010110D01*
X031392Y010117D01*
X031345Y010128D01*
X031299Y010142D01*
X031254Y010160D01*
X031211Y010182D01*
X031170Y010207D01*
X031132Y010236D01*
X031095Y010268D01*
X031061Y010302D01*
X031031Y010339D01*
X031003Y010378D01*
X030978Y010420D01*
X030958Y010464D01*
X030940Y010509D01*
X030927Y010555D01*
X030917Y010602D01*
X030911Y010650D01*
X030909Y010698D01*
X030909Y016198D02*
X030911Y016246D01*
X030917Y016294D01*
X030927Y016341D01*
X030940Y016387D01*
X030958Y016432D01*
X030978Y016476D01*
X031003Y016518D01*
X031031Y016557D01*
X031061Y016594D01*
X031095Y016628D01*
X031132Y016660D01*
X031170Y016689D01*
X031211Y016714D01*
X031254Y016736D01*
X031299Y016754D01*
X031345Y016768D01*
X031392Y016779D01*
X031440Y016786D01*
X031488Y016789D01*
X031536Y016788D01*
X031584Y016783D01*
X031632Y016774D01*
X031678Y016762D01*
X031723Y016745D01*
X031767Y016725D01*
X031809Y016702D01*
X031849Y016675D01*
X031887Y016645D01*
X031922Y016612D01*
X031954Y016576D01*
X031984Y016538D01*
X032010Y016497D01*
X032032Y016454D01*
X032052Y016410D01*
X032067Y016365D01*
X032079Y016318D01*
X032087Y016270D01*
X032091Y016222D01*
X032091Y016174D01*
X032087Y016126D01*
X032079Y016078D01*
X032067Y016031D01*
X032052Y015986D01*
X032032Y015942D01*
X032010Y015899D01*
X031984Y015858D01*
X031954Y015820D01*
X031922Y015784D01*
X031887Y015751D01*
X031849Y015721D01*
X031809Y015694D01*
X031767Y015671D01*
X031723Y015651D01*
X031678Y015634D01*
X031632Y015622D01*
X031584Y015613D01*
X031536Y015608D01*
X031488Y015607D01*
X031440Y015610D01*
X031392Y015617D01*
X031345Y015628D01*
X031299Y015642D01*
X031254Y015660D01*
X031211Y015682D01*
X031170Y015707D01*
X031132Y015736D01*
X031095Y015768D01*
X031061Y015802D01*
X031031Y015839D01*
X031003Y015878D01*
X030978Y015920D01*
X030958Y015964D01*
X030940Y016009D01*
X030927Y016055D01*
X030917Y016102D01*
X030911Y016150D01*
X030909Y016198D01*
X034609Y016198D02*
X034611Y016246D01*
X034617Y016294D01*
X034627Y016341D01*
X034640Y016387D01*
X034658Y016432D01*
X034678Y016476D01*
X034703Y016518D01*
X034731Y016557D01*
X034761Y016594D01*
X034795Y016628D01*
X034832Y016660D01*
X034870Y016689D01*
X034911Y016714D01*
X034954Y016736D01*
X034999Y016754D01*
X035045Y016768D01*
X035092Y016779D01*
X035140Y016786D01*
X035188Y016789D01*
X035236Y016788D01*
X035284Y016783D01*
X035332Y016774D01*
X035378Y016762D01*
X035423Y016745D01*
X035467Y016725D01*
X035509Y016702D01*
X035549Y016675D01*
X035587Y016645D01*
X035622Y016612D01*
X035654Y016576D01*
X035684Y016538D01*
X035710Y016497D01*
X035732Y016454D01*
X035752Y016410D01*
X035767Y016365D01*
X035779Y016318D01*
X035787Y016270D01*
X035791Y016222D01*
X035791Y016174D01*
X035787Y016126D01*
X035779Y016078D01*
X035767Y016031D01*
X035752Y015986D01*
X035732Y015942D01*
X035710Y015899D01*
X035684Y015858D01*
X035654Y015820D01*
X035622Y015784D01*
X035587Y015751D01*
X035549Y015721D01*
X035509Y015694D01*
X035467Y015671D01*
X035423Y015651D01*
X035378Y015634D01*
X035332Y015622D01*
X035284Y015613D01*
X035236Y015608D01*
X035188Y015607D01*
X035140Y015610D01*
X035092Y015617D01*
X035045Y015628D01*
X034999Y015642D01*
X034954Y015660D01*
X034911Y015682D01*
X034870Y015707D01*
X034832Y015736D01*
X034795Y015768D01*
X034761Y015802D01*
X034731Y015839D01*
X034703Y015878D01*
X034678Y015920D01*
X034658Y015964D01*
X034640Y016009D01*
X034627Y016055D01*
X034617Y016102D01*
X034611Y016150D01*
X034609Y016198D01*
X034609Y021698D02*
X034611Y021746D01*
X034617Y021794D01*
X034627Y021841D01*
X034640Y021887D01*
X034658Y021932D01*
X034678Y021976D01*
X034703Y022018D01*
X034731Y022057D01*
X034761Y022094D01*
X034795Y022128D01*
X034832Y022160D01*
X034870Y022189D01*
X034911Y022214D01*
X034954Y022236D01*
X034999Y022254D01*
X035045Y022268D01*
X035092Y022279D01*
X035140Y022286D01*
X035188Y022289D01*
X035236Y022288D01*
X035284Y022283D01*
X035332Y022274D01*
X035378Y022262D01*
X035423Y022245D01*
X035467Y022225D01*
X035509Y022202D01*
X035549Y022175D01*
X035587Y022145D01*
X035622Y022112D01*
X035654Y022076D01*
X035684Y022038D01*
X035710Y021997D01*
X035732Y021954D01*
X035752Y021910D01*
X035767Y021865D01*
X035779Y021818D01*
X035787Y021770D01*
X035791Y021722D01*
X035791Y021674D01*
X035787Y021626D01*
X035779Y021578D01*
X035767Y021531D01*
X035752Y021486D01*
X035732Y021442D01*
X035710Y021399D01*
X035684Y021358D01*
X035654Y021320D01*
X035622Y021284D01*
X035587Y021251D01*
X035549Y021221D01*
X035509Y021194D01*
X035467Y021171D01*
X035423Y021151D01*
X035378Y021134D01*
X035332Y021122D01*
X035284Y021113D01*
X035236Y021108D01*
X035188Y021107D01*
X035140Y021110D01*
X035092Y021117D01*
X035045Y021128D01*
X034999Y021142D01*
X034954Y021160D01*
X034911Y021182D01*
X034870Y021207D01*
X034832Y021236D01*
X034795Y021268D01*
X034761Y021302D01*
X034731Y021339D01*
X034703Y021378D01*
X034678Y021420D01*
X034658Y021464D01*
X034640Y021509D01*
X034627Y021555D01*
X034617Y021602D01*
X034611Y021650D01*
X034609Y021698D01*
X030909Y021698D02*
X030911Y021746D01*
X030917Y021794D01*
X030927Y021841D01*
X030940Y021887D01*
X030958Y021932D01*
X030978Y021976D01*
X031003Y022018D01*
X031031Y022057D01*
X031061Y022094D01*
X031095Y022128D01*
X031132Y022160D01*
X031170Y022189D01*
X031211Y022214D01*
X031254Y022236D01*
X031299Y022254D01*
X031345Y022268D01*
X031392Y022279D01*
X031440Y022286D01*
X031488Y022289D01*
X031536Y022288D01*
X031584Y022283D01*
X031632Y022274D01*
X031678Y022262D01*
X031723Y022245D01*
X031767Y022225D01*
X031809Y022202D01*
X031849Y022175D01*
X031887Y022145D01*
X031922Y022112D01*
X031954Y022076D01*
X031984Y022038D01*
X032010Y021997D01*
X032032Y021954D01*
X032052Y021910D01*
X032067Y021865D01*
X032079Y021818D01*
X032087Y021770D01*
X032091Y021722D01*
X032091Y021674D01*
X032087Y021626D01*
X032079Y021578D01*
X032067Y021531D01*
X032052Y021486D01*
X032032Y021442D01*
X032010Y021399D01*
X031984Y021358D01*
X031954Y021320D01*
X031922Y021284D01*
X031887Y021251D01*
X031849Y021221D01*
X031809Y021194D01*
X031767Y021171D01*
X031723Y021151D01*
X031678Y021134D01*
X031632Y021122D01*
X031584Y021113D01*
X031536Y021108D01*
X031488Y021107D01*
X031440Y021110D01*
X031392Y021117D01*
X031345Y021128D01*
X031299Y021142D01*
X031254Y021160D01*
X031211Y021182D01*
X031170Y021207D01*
X031132Y021236D01*
X031095Y021268D01*
X031061Y021302D01*
X031031Y021339D01*
X031003Y021378D01*
X030978Y021420D01*
X030958Y021464D01*
X030940Y021509D01*
X030927Y021555D01*
X030917Y021602D01*
X030911Y021650D01*
X030909Y021698D01*
D11*
X031385Y030385D02*
X031385Y030805D01*
X031595Y031016D01*
X031805Y030805D01*
X031805Y030385D01*
X032030Y030385D02*
X032030Y031016D01*
X032345Y031016D01*
X032450Y030910D01*
X032450Y030700D01*
X032345Y030595D01*
X032030Y030595D01*
X032240Y030595D02*
X032450Y030385D01*
X032674Y030385D02*
X032989Y030385D01*
X033094Y030490D01*
X033094Y030910D01*
X032989Y031016D01*
X032674Y031016D01*
X032674Y030385D01*
X033319Y030490D02*
X033319Y031016D01*
X033739Y031016D02*
X033739Y030490D01*
X033634Y030385D01*
X033424Y030385D01*
X033319Y030490D01*
X033963Y030385D02*
X034173Y030385D01*
X034068Y030385D02*
X034068Y031016D01*
X033963Y031016D02*
X034173Y031016D01*
X034393Y031016D02*
X034813Y030385D01*
X034813Y031016D01*
X035037Y030910D02*
X035037Y030490D01*
X035143Y030385D01*
X035353Y030385D01*
X035458Y030490D01*
X035458Y030910D01*
X035353Y031016D01*
X035143Y031016D01*
X035037Y030910D01*
X034393Y031016D02*
X034393Y030385D01*
X031805Y030700D02*
X031385Y030700D01*
X007870Y007302D02*
X007475Y007039D01*
X007870Y006775D01*
X007475Y006775D02*
X007475Y007566D01*
X007079Y007302D02*
X007210Y007170D01*
X007210Y006907D01*
X007079Y006775D01*
X006815Y006775D01*
X006683Y006907D01*
X006683Y007170D01*
X006815Y007302D01*
X007079Y007302D01*
X006418Y007170D02*
X006418Y006907D01*
X006287Y006775D01*
X006023Y006775D01*
X005891Y006907D01*
X005891Y007170D01*
X006023Y007302D01*
X006287Y007302D01*
X006418Y007170D01*
X005627Y006907D02*
X005495Y006775D01*
X005231Y006775D01*
X005099Y006907D01*
X005099Y007434D01*
X005231Y007566D01*
X005495Y007566D01*
X005627Y007434D01*
X004835Y007302D02*
X004439Y007302D01*
X004308Y007170D01*
X004439Y007039D01*
X004703Y007039D01*
X004835Y006907D01*
X004703Y006775D01*
X004308Y006775D01*
X004043Y006907D02*
X003911Y007039D01*
X003647Y007039D01*
X003516Y007170D01*
X003647Y007302D01*
X004043Y007302D01*
X004043Y006907D02*
X003911Y006775D01*
X003516Y006775D01*
X003251Y007039D02*
X003251Y007170D01*
X003119Y007302D01*
X002856Y007302D01*
X002724Y007170D01*
X002724Y006907D01*
X002856Y006775D01*
X003119Y006775D01*
X003251Y007039D02*
X002724Y007039D01*
X002459Y007302D02*
X002328Y007302D01*
X002064Y007039D01*
X002064Y007302D02*
X002064Y006775D01*
X001799Y006907D02*
X001799Y007170D01*
X001667Y007302D01*
X001272Y007302D01*
X001272Y006511D01*
X001272Y006775D02*
X001667Y006775D01*
X001799Y006907D01*
X001007Y006775D02*
X000480Y007302D01*
X000215Y007566D02*
X-000312Y007566D01*
X-000312Y006775D01*
X000215Y006775D01*
X000480Y006775D02*
X001007Y007302D01*
X-000048Y007170D02*
X-000312Y007170D01*
X-000256Y006066D02*
X000139Y006066D01*
X000271Y005934D01*
X000271Y005670D01*
X000139Y005539D01*
X-000256Y005539D01*
X-000256Y005275D02*
X-000256Y006066D01*
X000536Y005670D02*
X000536Y005407D01*
X000668Y005275D01*
X000931Y005275D01*
X001063Y005407D01*
X001063Y005670D01*
X000931Y005802D01*
X000668Y005802D01*
X000536Y005670D01*
X001328Y005802D02*
X001328Y005407D01*
X001460Y005275D01*
X001591Y005407D01*
X001723Y005275D01*
X001855Y005407D01*
X001855Y005802D01*
X002120Y005670D02*
X002252Y005802D01*
X002515Y005802D01*
X002647Y005670D01*
X002647Y005539D01*
X002120Y005539D01*
X002120Y005670D02*
X002120Y005407D01*
X002252Y005275D01*
X002515Y005275D01*
X002912Y005275D02*
X002912Y005802D01*
X002912Y005539D02*
X003175Y005802D01*
X003307Y005802D01*
X004363Y005802D02*
X004627Y005275D01*
X004891Y005802D01*
X005155Y005934D02*
X005155Y005407D01*
X005682Y005934D01*
X005682Y005407D01*
X005551Y005275D01*
X005287Y005275D01*
X005155Y005407D01*
X005155Y005934D02*
X005287Y006066D01*
X005551Y006066D01*
X005682Y005934D01*
X005947Y005407D02*
X006079Y005407D01*
X006079Y005275D01*
X005947Y005275D01*
X005947Y005407D01*
X006343Y005275D02*
X006870Y005275D01*
X006607Y005275D02*
X006607Y006066D01*
X006343Y005802D01*
X002661Y008685D02*
X002240Y008685D01*
X002451Y008685D02*
X002451Y009316D01*
X002240Y009105D01*
X002016Y008895D02*
X002016Y009316D01*
X001596Y009316D02*
X001596Y008895D01*
X001806Y008685D01*
X002016Y008895D01*
X001372Y008790D02*
X001267Y008685D01*
X001056Y008685D01*
X000951Y008790D01*
X000951Y009000D02*
X001162Y009105D01*
X001267Y009105D01*
X001372Y009000D01*
X001372Y008790D01*
X000951Y009000D02*
X000951Y009316D01*
X001372Y009316D01*
X001297Y014685D02*
X000877Y014685D01*
X000877Y015316D01*
X001522Y015316D02*
X001732Y015316D01*
X001627Y015316D02*
X001627Y014685D01*
X001522Y014685D02*
X001732Y014685D01*
X001951Y014790D02*
X001951Y015210D01*
X002056Y015316D01*
X002267Y015316D01*
X002372Y015210D01*
X002372Y015000D02*
X002162Y015000D01*
X002372Y015000D02*
X002372Y014790D01*
X002267Y014685D01*
X002056Y014685D01*
X001951Y014790D01*
X002596Y014685D02*
X002596Y015316D01*
X002596Y015000D02*
X003016Y015000D01*
X003016Y014685D02*
X003016Y015316D01*
X003240Y015316D02*
X003661Y015316D01*
X003451Y015316D02*
X003451Y014685D01*
X003372Y020685D02*
X003372Y021316D01*
X003596Y021316D02*
X003596Y020790D01*
X003701Y020685D01*
X003911Y020685D01*
X004016Y020790D01*
X004016Y021316D01*
X004240Y021316D02*
X004556Y021316D01*
X004661Y021210D01*
X004661Y021105D01*
X004556Y021000D01*
X004240Y021000D01*
X004240Y020685D02*
X004556Y020685D01*
X004661Y020790D01*
X004661Y020895D01*
X004556Y021000D01*
X004240Y020685D02*
X004240Y021316D01*
X003372Y021000D02*
X002951Y021000D01*
X002727Y020895D02*
X002727Y020790D01*
X002622Y020685D01*
X002307Y020685D01*
X002307Y021316D01*
X002622Y021316D01*
X002727Y021210D01*
X002727Y021105D01*
X002622Y021000D01*
X002307Y021000D01*
X002083Y020895D02*
X002083Y020790D01*
X001978Y020685D01*
X001767Y020685D01*
X001662Y020790D01*
X001438Y020790D02*
X001438Y021316D01*
X001662Y021210D02*
X001662Y021105D01*
X001767Y021000D01*
X001978Y021000D01*
X002083Y020895D01*
X002083Y021210D02*
X001978Y021316D01*
X001767Y021316D01*
X001662Y021210D01*
X001438Y020790D02*
X001333Y020685D01*
X001123Y020685D01*
X001018Y020790D01*
X001018Y021316D01*
X002622Y021000D02*
X002727Y020895D01*
X002951Y020685D02*
X002951Y021316D01*
X003096Y026685D02*
X003096Y027316D01*
X003516Y026685D01*
X003516Y027316D01*
X003740Y027316D02*
X003740Y026685D01*
X004161Y026685D01*
X003951Y027000D02*
X003740Y027000D01*
X003740Y027316D02*
X004161Y027316D01*
X002872Y027210D02*
X002872Y026790D01*
X002767Y026685D01*
X002556Y026685D01*
X002451Y026790D01*
X002451Y027210D01*
X002556Y027316D01*
X002767Y027316D01*
X002872Y027210D01*
X002227Y027210D02*
X002227Y027105D01*
X002122Y027000D01*
X001807Y027000D01*
X001583Y026895D02*
X001583Y026790D01*
X001478Y026685D01*
X001162Y026685D01*
X001162Y027316D01*
X001478Y027316D01*
X001583Y027210D01*
X001583Y027105D01*
X001478Y027000D01*
X001162Y027000D01*
X001478Y027000D02*
X001583Y026895D01*
X001807Y026685D02*
X002122Y026685D01*
X002227Y026790D01*
X002227Y026895D01*
X002122Y027000D01*
X002227Y027210D02*
X002122Y027316D01*
X001807Y027316D01*
X001807Y026685D01*
D12*
X001100Y035100D02*
X001102Y035163D01*
X001108Y035225D01*
X001118Y035287D01*
X001131Y035349D01*
X001149Y035409D01*
X001170Y035468D01*
X001195Y035526D01*
X001224Y035582D01*
X001256Y035636D01*
X001291Y035688D01*
X001329Y035737D01*
X001371Y035785D01*
X001415Y035829D01*
X001463Y035871D01*
X001512Y035909D01*
X001564Y035944D01*
X001618Y035976D01*
X001674Y036005D01*
X001732Y036030D01*
X001791Y036051D01*
X001851Y036069D01*
X001913Y036082D01*
X001975Y036092D01*
X002037Y036098D01*
X002100Y036100D01*
X002163Y036098D01*
X002225Y036092D01*
X002287Y036082D01*
X002349Y036069D01*
X002409Y036051D01*
X002468Y036030D01*
X002526Y036005D01*
X002582Y035976D01*
X002636Y035944D01*
X002688Y035909D01*
X002737Y035871D01*
X002785Y035829D01*
X002829Y035785D01*
X002871Y035737D01*
X002909Y035688D01*
X002944Y035636D01*
X002976Y035582D01*
X003005Y035526D01*
X003030Y035468D01*
X003051Y035409D01*
X003069Y035349D01*
X003082Y035287D01*
X003092Y035225D01*
X003098Y035163D01*
X003100Y035100D01*
X003098Y035037D01*
X003092Y034975D01*
X003082Y034913D01*
X003069Y034851D01*
X003051Y034791D01*
X003030Y034732D01*
X003005Y034674D01*
X002976Y034618D01*
X002944Y034564D01*
X002909Y034512D01*
X002871Y034463D01*
X002829Y034415D01*
X002785Y034371D01*
X002737Y034329D01*
X002688Y034291D01*
X002636Y034256D01*
X002582Y034224D01*
X002526Y034195D01*
X002468Y034170D01*
X002409Y034149D01*
X002349Y034131D01*
X002287Y034118D01*
X002225Y034108D01*
X002163Y034102D01*
X002100Y034100D01*
X002037Y034102D01*
X001975Y034108D01*
X001913Y034118D01*
X001851Y034131D01*
X001791Y034149D01*
X001732Y034170D01*
X001674Y034195D01*
X001618Y034224D01*
X001564Y034256D01*
X001512Y034291D01*
X001463Y034329D01*
X001415Y034371D01*
X001371Y034415D01*
X001329Y034463D01*
X001291Y034512D01*
X001256Y034564D01*
X001224Y034618D01*
X001195Y034674D01*
X001170Y034732D01*
X001149Y034791D01*
X001131Y034851D01*
X001118Y034913D01*
X001108Y034975D01*
X001102Y035037D01*
X001100Y035100D01*
X001000Y002100D02*
X001002Y002166D01*
X001008Y002231D01*
X001018Y002296D01*
X001031Y002361D01*
X001049Y002424D01*
X001070Y002487D01*
X001095Y002547D01*
X001124Y002607D01*
X001156Y002664D01*
X001191Y002720D01*
X001230Y002773D01*
X001272Y002824D01*
X001316Y002872D01*
X001364Y002917D01*
X001414Y002960D01*
X001467Y002999D01*
X001522Y003036D01*
X001579Y003069D01*
X001638Y003098D01*
X001698Y003124D01*
X001760Y003146D01*
X001823Y003165D01*
X001887Y003179D01*
X001952Y003190D01*
X002018Y003197D01*
X002084Y003200D01*
X002149Y003199D01*
X002215Y003194D01*
X002280Y003185D01*
X002345Y003172D01*
X002408Y003156D01*
X002471Y003136D01*
X002532Y003111D01*
X002592Y003084D01*
X002650Y003053D01*
X002706Y003018D01*
X002760Y002980D01*
X002811Y002939D01*
X002860Y002895D01*
X002906Y002848D01*
X002950Y002799D01*
X002990Y002747D01*
X003027Y002692D01*
X003061Y002636D01*
X003091Y002577D01*
X003118Y002517D01*
X003141Y002456D01*
X003160Y002393D01*
X003176Y002329D01*
X003188Y002264D01*
X003196Y002199D01*
X003200Y002133D01*
X003200Y002067D01*
X003196Y002001D01*
X003188Y001936D01*
X003176Y001871D01*
X003160Y001807D01*
X003141Y001744D01*
X003118Y001683D01*
X003091Y001623D01*
X003061Y001564D01*
X003027Y001508D01*
X002990Y001453D01*
X002950Y001401D01*
X002906Y001352D01*
X002860Y001305D01*
X002811Y001261D01*
X002760Y001220D01*
X002706Y001182D01*
X002650Y001147D01*
X002592Y001116D01*
X002532Y001089D01*
X002471Y001064D01*
X002408Y001044D01*
X002345Y001028D01*
X002280Y001015D01*
X002215Y001006D01*
X002149Y001001D01*
X002084Y001000D01*
X002018Y001003D01*
X001952Y001010D01*
X001887Y001021D01*
X001823Y001035D01*
X001760Y001054D01*
X001698Y001076D01*
X001638Y001102D01*
X001579Y001131D01*
X001522Y001164D01*
X001467Y001201D01*
X001414Y001240D01*
X001364Y001283D01*
X001316Y001328D01*
X001272Y001376D01*
X001230Y001427D01*
X001191Y001480D01*
X001156Y001536D01*
X001124Y001593D01*
X001095Y001653D01*
X001070Y001713D01*
X001049Y001776D01*
X001031Y001839D01*
X001018Y001904D01*
X001008Y001969D01*
X001002Y002034D01*
X001000Y002100D01*
X033600Y002100D02*
X033602Y002163D01*
X033608Y002225D01*
X033618Y002287D01*
X033631Y002349D01*
X033649Y002409D01*
X033670Y002468D01*
X033695Y002526D01*
X033724Y002582D01*
X033756Y002636D01*
X033791Y002688D01*
X033829Y002737D01*
X033871Y002785D01*
X033915Y002829D01*
X033963Y002871D01*
X034012Y002909D01*
X034064Y002944D01*
X034118Y002976D01*
X034174Y003005D01*
X034232Y003030D01*
X034291Y003051D01*
X034351Y003069D01*
X034413Y003082D01*
X034475Y003092D01*
X034537Y003098D01*
X034600Y003100D01*
X034663Y003098D01*
X034725Y003092D01*
X034787Y003082D01*
X034849Y003069D01*
X034909Y003051D01*
X034968Y003030D01*
X035026Y003005D01*
X035082Y002976D01*
X035136Y002944D01*
X035188Y002909D01*
X035237Y002871D01*
X035285Y002829D01*
X035329Y002785D01*
X035371Y002737D01*
X035409Y002688D01*
X035444Y002636D01*
X035476Y002582D01*
X035505Y002526D01*
X035530Y002468D01*
X035551Y002409D01*
X035569Y002349D01*
X035582Y002287D01*
X035592Y002225D01*
X035598Y002163D01*
X035600Y002100D01*
X035598Y002037D01*
X035592Y001975D01*
X035582Y001913D01*
X035569Y001851D01*
X035551Y001791D01*
X035530Y001732D01*
X035505Y001674D01*
X035476Y001618D01*
X035444Y001564D01*
X035409Y001512D01*
X035371Y001463D01*
X035329Y001415D01*
X035285Y001371D01*
X035237Y001329D01*
X035188Y001291D01*
X035136Y001256D01*
X035082Y001224D01*
X035026Y001195D01*
X034968Y001170D01*
X034909Y001149D01*
X034849Y001131D01*
X034787Y001118D01*
X034725Y001108D01*
X034663Y001102D01*
X034600Y001100D01*
X034537Y001102D01*
X034475Y001108D01*
X034413Y001118D01*
X034351Y001131D01*
X034291Y001149D01*
X034232Y001170D01*
X034174Y001195D01*
X034118Y001224D01*
X034064Y001256D01*
X034012Y001291D01*
X033963Y001329D01*
X033915Y001371D01*
X033871Y001415D01*
X033829Y001463D01*
X033791Y001512D01*
X033756Y001564D01*
X033724Y001618D01*
X033695Y001674D01*
X033670Y001732D01*
X033649Y001791D01*
X033631Y001851D01*
X033618Y001913D01*
X033608Y001975D01*
X033602Y002037D01*
X033600Y002100D01*
X033600Y035100D02*
X033602Y035163D01*
X033608Y035225D01*
X033618Y035287D01*
X033631Y035349D01*
X033649Y035409D01*
X033670Y035468D01*
X033695Y035526D01*
X033724Y035582D01*
X033756Y035636D01*
X033791Y035688D01*
X033829Y035737D01*
X033871Y035785D01*
X033915Y035829D01*
X033963Y035871D01*
X034012Y035909D01*
X034064Y035944D01*
X034118Y035976D01*
X034174Y036005D01*
X034232Y036030D01*
X034291Y036051D01*
X034351Y036069D01*
X034413Y036082D01*
X034475Y036092D01*
X034537Y036098D01*
X034600Y036100D01*
X034663Y036098D01*
X034725Y036092D01*
X034787Y036082D01*
X034849Y036069D01*
X034909Y036051D01*
X034968Y036030D01*
X035026Y036005D01*
X035082Y035976D01*
X035136Y035944D01*
X035188Y035909D01*
X035237Y035871D01*
X035285Y035829D01*
X035329Y035785D01*
X035371Y035737D01*
X035409Y035688D01*
X035444Y035636D01*
X035476Y035582D01*
X035505Y035526D01*
X035530Y035468D01*
X035551Y035409D01*
X035569Y035349D01*
X035582Y035287D01*
X035592Y035225D01*
X035598Y035163D01*
X035600Y035100D01*
X035598Y035037D01*
X035592Y034975D01*
X035582Y034913D01*
X035569Y034851D01*
X035551Y034791D01*
X035530Y034732D01*
X035505Y034674D01*
X035476Y034618D01*
X035444Y034564D01*
X035409Y034512D01*
X035371Y034463D01*
X035329Y034415D01*
X035285Y034371D01*
X035237Y034329D01*
X035188Y034291D01*
X035136Y034256D01*
X035082Y034224D01*
X035026Y034195D01*
X034968Y034170D01*
X034909Y034149D01*
X034849Y034131D01*
X034787Y034118D01*
X034725Y034108D01*
X034663Y034102D01*
X034600Y034100D01*
X034537Y034102D01*
X034475Y034108D01*
X034413Y034118D01*
X034351Y034131D01*
X034291Y034149D01*
X034232Y034170D01*
X034174Y034195D01*
X034118Y034224D01*
X034064Y034256D01*
X034012Y034291D01*
X033963Y034329D01*
X033915Y034371D01*
X033871Y034415D01*
X033829Y034463D01*
X033791Y034512D01*
X033756Y034564D01*
X033724Y034618D01*
X033695Y034674D01*
X033670Y034732D01*
X033649Y034791D01*
X033631Y034851D01*
X033618Y034913D01*
X033608Y034975D01*
X033602Y035037D01*
X033600Y035100D01*
D13*
X029530Y028967D02*
X029530Y028660D01*
X029530Y028813D02*
X029070Y028813D01*
X029223Y028660D01*
X029146Y028506D02*
X029070Y028429D01*
X029070Y028276D01*
X029146Y028199D01*
X029453Y028199D01*
X029530Y028276D01*
X029530Y028429D01*
X029453Y028506D01*
X016030Y023890D02*
X016030Y023736D01*
X015953Y023660D01*
X015953Y023506D02*
X016030Y023429D01*
X016030Y023276D01*
X015953Y023199D01*
X015646Y023199D01*
X015570Y023276D01*
X015570Y023429D01*
X015646Y023506D01*
X015646Y023660D02*
X015723Y023660D01*
X015800Y023736D01*
X015800Y023967D01*
X015953Y023967D02*
X015646Y023967D01*
X015570Y023890D01*
X015570Y023736D01*
X015646Y023660D01*
X015953Y023967D02*
X016030Y023890D01*
X014553Y020887D02*
X014630Y020811D01*
X014630Y020657D01*
X014553Y020580D01*
X014477Y020580D01*
X014400Y020657D01*
X014400Y020811D01*
X014477Y020887D01*
X014553Y020887D01*
X014400Y020811D02*
X014323Y020887D01*
X014246Y020887D01*
X014170Y020811D01*
X014170Y020657D01*
X014246Y020580D01*
X014323Y020580D01*
X014400Y020657D01*
X014553Y020427D02*
X014630Y020350D01*
X014630Y020197D01*
X014553Y020120D01*
X014246Y020120D01*
X014170Y020197D01*
X014170Y020350D01*
X014246Y020427D01*
X010887Y010030D02*
X010734Y009954D01*
X010580Y009800D01*
X010811Y009800D01*
X010887Y009723D01*
X010887Y009647D01*
X010811Y009570D01*
X010657Y009570D01*
X010580Y009647D01*
X010580Y009800D01*
X010427Y009647D02*
X010350Y009570D01*
X010197Y009570D01*
X010120Y009647D01*
X010120Y009954D01*
X010197Y010030D01*
X010350Y010030D01*
X010427Y009954D01*
X010620Y032120D02*
X010620Y032580D01*
X010850Y032580D01*
X010927Y032504D01*
X010927Y032350D01*
X010850Y032273D01*
X010620Y032273D01*
X010773Y032273D02*
X010927Y032120D01*
X011080Y032120D02*
X011387Y032120D01*
X011234Y032120D02*
X011234Y032580D01*
X011080Y032427D01*
X007887Y032427D02*
X007887Y032504D01*
X007811Y032580D01*
X007657Y032580D01*
X007580Y032504D01*
X007427Y032504D02*
X007427Y032350D01*
X007350Y032273D01*
X007120Y032273D01*
X007120Y032120D02*
X007120Y032580D01*
X007350Y032580D01*
X007427Y032504D01*
X007273Y032273D02*
X007427Y032120D01*
X007580Y032120D02*
X007887Y032427D01*
X007887Y032120D02*
X007580Y032120D01*
D14*
X007600Y034350D02*
X007600Y035850D01*
X011100Y035850D02*
X011100Y034350D01*
X014488Y035854D02*
X014488Y030122D01*
X022712Y030122D01*
X022712Y035854D01*
X014488Y035854D01*
X018049Y035840D02*
X018049Y034452D01*
X019151Y034452D01*
X019151Y035820D01*
X026964Y032061D02*
X026964Y031140D01*
X026964Y031600D02*
X027271Y031600D01*
X026964Y032061D02*
X027578Y032061D01*
X027885Y031600D02*
X028498Y031600D01*
X028805Y031140D02*
X029112Y031140D01*
X028959Y031140D02*
X028959Y032061D01*
X029112Y032061D02*
X028805Y032061D01*
X029419Y032061D02*
X030033Y031140D01*
X030033Y032061D01*
X029419Y032061D02*
X029419Y031140D01*
X029387Y023899D02*
X028870Y023899D01*
X028330Y023899D02*
X027813Y023899D01*
X027301Y023269D01*
X027301Y021301D01*
X028330Y021301D01*
X028870Y021301D02*
X029899Y021301D01*
X029899Y023269D01*
X029387Y023899D01*
X028869Y023821D02*
X028936Y023804D01*
X029002Y023783D01*
X029067Y023759D01*
X029130Y023731D01*
X029191Y023700D01*
X029251Y023666D01*
X029309Y023628D01*
X029364Y023587D01*
X029418Y023543D01*
X029468Y023497D01*
X029516Y023447D01*
X029562Y023395D01*
X029604Y023341D01*
X029643Y023284D01*
X029679Y023226D01*
X029712Y023165D01*
X029742Y023103D01*
X029768Y023039D01*
X029790Y022973D01*
X029809Y022907D01*
X029824Y022840D01*
X029835Y022772D01*
X029843Y022703D01*
X029847Y022634D01*
X029847Y022566D01*
X029843Y022497D01*
X029835Y022428D01*
X029824Y022360D01*
X029809Y022293D01*
X029790Y022227D01*
X029768Y022161D01*
X029742Y022097D01*
X029712Y022035D01*
X029679Y021974D01*
X029643Y021916D01*
X029604Y021859D01*
X029562Y021805D01*
X029516Y021753D01*
X029468Y021703D01*
X029418Y021657D01*
X029364Y021613D01*
X029309Y021572D01*
X029251Y021534D01*
X029191Y021500D01*
X029130Y021469D01*
X029067Y021441D01*
X029002Y021417D01*
X028936Y021396D01*
X028869Y021379D01*
X028330Y021379D02*
X028262Y021395D01*
X028196Y021415D01*
X028130Y021438D01*
X028066Y021466D01*
X028004Y021496D01*
X027943Y021530D01*
X027885Y021567D01*
X027828Y021608D01*
X027774Y021652D01*
X027723Y021698D01*
X027674Y021748D01*
X027628Y021800D01*
X027585Y021854D01*
X027545Y021911D01*
X027508Y021970D01*
X027474Y022031D01*
X027444Y022094D01*
X027418Y022158D01*
X027395Y022224D01*
X027376Y022290D01*
X027361Y022358D01*
X027349Y022427D01*
X027341Y022496D01*
X027337Y022565D01*
X027337Y022635D01*
X027341Y022704D01*
X027349Y022773D01*
X027361Y022842D01*
X027376Y022910D01*
X027395Y022976D01*
X027418Y023042D01*
X027444Y023106D01*
X027474Y023169D01*
X027508Y023230D01*
X027545Y023289D01*
X027585Y023346D01*
X027628Y023400D01*
X027674Y023452D01*
X027723Y023502D01*
X027774Y023548D01*
X027828Y023592D01*
X027885Y023633D01*
X027943Y023670D01*
X028004Y023704D01*
X028066Y023734D01*
X028130Y023762D01*
X028196Y023785D01*
X028262Y023805D01*
X028330Y023821D01*
X028330Y018399D02*
X027813Y018399D01*
X027301Y017769D01*
X027301Y015801D01*
X028330Y015801D01*
X028870Y015801D02*
X029899Y015801D01*
X029899Y017769D01*
X029387Y018399D01*
X028870Y018399D01*
X028869Y018321D02*
X028936Y018304D01*
X029002Y018283D01*
X029067Y018259D01*
X029130Y018231D01*
X029191Y018200D01*
X029251Y018166D01*
X029309Y018128D01*
X029364Y018087D01*
X029418Y018043D01*
X029468Y017997D01*
X029516Y017947D01*
X029562Y017895D01*
X029604Y017841D01*
X029643Y017784D01*
X029679Y017726D01*
X029712Y017665D01*
X029742Y017603D01*
X029768Y017539D01*
X029790Y017473D01*
X029809Y017407D01*
X029824Y017340D01*
X029835Y017272D01*
X029843Y017203D01*
X029847Y017134D01*
X029847Y017066D01*
X029843Y016997D01*
X029835Y016928D01*
X029824Y016860D01*
X029809Y016793D01*
X029790Y016727D01*
X029768Y016661D01*
X029742Y016597D01*
X029712Y016535D01*
X029679Y016474D01*
X029643Y016416D01*
X029604Y016359D01*
X029562Y016305D01*
X029516Y016253D01*
X029468Y016203D01*
X029418Y016157D01*
X029364Y016113D01*
X029309Y016072D01*
X029251Y016034D01*
X029191Y016000D01*
X029130Y015969D01*
X029067Y015941D01*
X029002Y015917D01*
X028936Y015896D01*
X028869Y015879D01*
X028330Y015879D02*
X028262Y015895D01*
X028196Y015915D01*
X028130Y015938D01*
X028066Y015966D01*
X028004Y015996D01*
X027943Y016030D01*
X027885Y016067D01*
X027828Y016108D01*
X027774Y016152D01*
X027723Y016198D01*
X027674Y016248D01*
X027628Y016300D01*
X027585Y016354D01*
X027545Y016411D01*
X027508Y016470D01*
X027474Y016531D01*
X027444Y016594D01*
X027418Y016658D01*
X027395Y016724D01*
X027376Y016790D01*
X027361Y016858D01*
X027349Y016927D01*
X027341Y016996D01*
X027337Y017065D01*
X027337Y017135D01*
X027341Y017204D01*
X027349Y017273D01*
X027361Y017342D01*
X027376Y017410D01*
X027395Y017476D01*
X027418Y017542D01*
X027444Y017606D01*
X027474Y017669D01*
X027508Y017730D01*
X027545Y017789D01*
X027585Y017846D01*
X027628Y017900D01*
X027674Y017952D01*
X027723Y018002D01*
X027774Y018048D01*
X027828Y018092D01*
X027885Y018133D01*
X027943Y018170D01*
X028004Y018204D01*
X028066Y018234D01*
X028130Y018262D01*
X028196Y018285D01*
X028262Y018305D01*
X028330Y018321D01*
X028330Y012899D02*
X027813Y012899D01*
X027301Y012269D01*
X027301Y010301D01*
X028330Y010301D01*
X028870Y010301D02*
X029899Y010301D01*
X029899Y012269D01*
X029387Y012899D01*
X028870Y012899D01*
X028869Y012821D02*
X028936Y012804D01*
X029002Y012783D01*
X029067Y012759D01*
X029130Y012731D01*
X029191Y012700D01*
X029251Y012666D01*
X029309Y012628D01*
X029364Y012587D01*
X029418Y012543D01*
X029468Y012497D01*
X029516Y012447D01*
X029562Y012395D01*
X029604Y012341D01*
X029643Y012284D01*
X029679Y012226D01*
X029712Y012165D01*
X029742Y012103D01*
X029768Y012039D01*
X029790Y011973D01*
X029809Y011907D01*
X029824Y011840D01*
X029835Y011772D01*
X029843Y011703D01*
X029847Y011634D01*
X029847Y011566D01*
X029843Y011497D01*
X029835Y011428D01*
X029824Y011360D01*
X029809Y011293D01*
X029790Y011227D01*
X029768Y011161D01*
X029742Y011097D01*
X029712Y011035D01*
X029679Y010974D01*
X029643Y010916D01*
X029604Y010859D01*
X029562Y010805D01*
X029516Y010753D01*
X029468Y010703D01*
X029418Y010657D01*
X029364Y010613D01*
X029309Y010572D01*
X029251Y010534D01*
X029191Y010500D01*
X029130Y010469D01*
X029067Y010441D01*
X029002Y010417D01*
X028936Y010396D01*
X028869Y010379D01*
X028330Y010379D02*
X028262Y010395D01*
X028196Y010415D01*
X028130Y010438D01*
X028066Y010466D01*
X028004Y010496D01*
X027943Y010530D01*
X027885Y010567D01*
X027828Y010608D01*
X027774Y010652D01*
X027723Y010698D01*
X027674Y010748D01*
X027628Y010800D01*
X027585Y010854D01*
X027545Y010911D01*
X027508Y010970D01*
X027474Y011031D01*
X027444Y011094D01*
X027418Y011158D01*
X027395Y011224D01*
X027376Y011290D01*
X027361Y011358D01*
X027349Y011427D01*
X027341Y011496D01*
X027337Y011565D01*
X027337Y011635D01*
X027341Y011704D01*
X027349Y011773D01*
X027361Y011842D01*
X027376Y011910D01*
X027395Y011976D01*
X027418Y012042D01*
X027444Y012106D01*
X027474Y012169D01*
X027508Y012230D01*
X027545Y012289D01*
X027585Y012346D01*
X027628Y012400D01*
X027674Y012452D01*
X027723Y012502D01*
X027774Y012548D01*
X027828Y012592D01*
X027885Y012633D01*
X027943Y012670D01*
X028004Y012704D01*
X028066Y012734D01*
X028130Y012762D01*
X028196Y012785D01*
X028262Y012805D01*
X028330Y012821D01*
X028330Y007399D02*
X027813Y007399D01*
X027301Y006769D01*
X027301Y004801D01*
X028330Y004801D01*
X028870Y004801D02*
X029899Y004801D01*
X029899Y006769D01*
X029387Y007399D01*
X028870Y007399D01*
X028869Y007321D02*
X028936Y007304D01*
X029002Y007283D01*
X029067Y007259D01*
X029130Y007231D01*
X029191Y007200D01*
X029251Y007166D01*
X029309Y007128D01*
X029364Y007087D01*
X029418Y007043D01*
X029468Y006997D01*
X029516Y006947D01*
X029562Y006895D01*
X029604Y006841D01*
X029643Y006784D01*
X029679Y006726D01*
X029712Y006665D01*
X029742Y006603D01*
X029768Y006539D01*
X029790Y006473D01*
X029809Y006407D01*
X029824Y006340D01*
X029835Y006272D01*
X029843Y006203D01*
X029847Y006134D01*
X029847Y006066D01*
X029843Y005997D01*
X029835Y005928D01*
X029824Y005860D01*
X029809Y005793D01*
X029790Y005727D01*
X029768Y005661D01*
X029742Y005597D01*
X029712Y005535D01*
X029679Y005474D01*
X029643Y005416D01*
X029604Y005359D01*
X029562Y005305D01*
X029516Y005253D01*
X029468Y005203D01*
X029418Y005157D01*
X029364Y005113D01*
X029309Y005072D01*
X029251Y005034D01*
X029191Y005000D01*
X029130Y004969D01*
X029067Y004941D01*
X029002Y004917D01*
X028936Y004896D01*
X028869Y004879D01*
X028330Y004879D02*
X028262Y004895D01*
X028196Y004915D01*
X028130Y004938D01*
X028066Y004966D01*
X028004Y004996D01*
X027943Y005030D01*
X027885Y005067D01*
X027828Y005108D01*
X027774Y005152D01*
X027723Y005198D01*
X027674Y005248D01*
X027628Y005300D01*
X027585Y005354D01*
X027545Y005411D01*
X027508Y005470D01*
X027474Y005531D01*
X027444Y005594D01*
X027418Y005658D01*
X027395Y005724D01*
X027376Y005790D01*
X027361Y005858D01*
X027349Y005927D01*
X027341Y005996D01*
X027337Y006065D01*
X027337Y006135D01*
X027341Y006204D01*
X027349Y006273D01*
X027361Y006342D01*
X027376Y006410D01*
X027395Y006476D01*
X027418Y006542D01*
X027444Y006606D01*
X027474Y006669D01*
X027508Y006730D01*
X027545Y006789D01*
X027585Y006846D01*
X027628Y006900D01*
X027674Y006952D01*
X027723Y007002D01*
X027774Y007048D01*
X027828Y007092D01*
X027885Y007133D01*
X027943Y007170D01*
X028004Y007204D01*
X028066Y007234D01*
X028130Y007262D01*
X028196Y007285D01*
X028262Y007305D01*
X028330Y007321D01*
X018399Y008301D02*
X018399Y009330D01*
X018399Y009870D02*
X018399Y010899D01*
X016431Y010899D01*
X015801Y010387D01*
X015801Y009870D01*
X015801Y009330D02*
X015801Y008813D01*
X016431Y008301D01*
X018399Y008301D01*
X018321Y009330D02*
X018305Y009262D01*
X018285Y009196D01*
X018262Y009130D01*
X018234Y009066D01*
X018204Y009004D01*
X018170Y008943D01*
X018133Y008885D01*
X018092Y008828D01*
X018048Y008774D01*
X018002Y008723D01*
X017952Y008674D01*
X017900Y008628D01*
X017846Y008585D01*
X017789Y008545D01*
X017730Y008508D01*
X017669Y008474D01*
X017606Y008444D01*
X017542Y008418D01*
X017476Y008395D01*
X017410Y008376D01*
X017342Y008361D01*
X017273Y008349D01*
X017204Y008341D01*
X017135Y008337D01*
X017065Y008337D01*
X016996Y008341D01*
X016927Y008349D01*
X016858Y008361D01*
X016790Y008376D01*
X016724Y008395D01*
X016658Y008418D01*
X016594Y008444D01*
X016531Y008474D01*
X016470Y008508D01*
X016411Y008545D01*
X016354Y008585D01*
X016300Y008628D01*
X016248Y008674D01*
X016198Y008723D01*
X016152Y008774D01*
X016108Y008828D01*
X016067Y008885D01*
X016030Y008943D01*
X015996Y009004D01*
X015966Y009066D01*
X015938Y009130D01*
X015915Y009196D01*
X015895Y009262D01*
X015879Y009330D01*
X015879Y009869D02*
X015896Y009936D01*
X015917Y010002D01*
X015941Y010067D01*
X015969Y010130D01*
X016000Y010191D01*
X016034Y010251D01*
X016072Y010309D01*
X016113Y010364D01*
X016157Y010418D01*
X016203Y010468D01*
X016253Y010516D01*
X016305Y010562D01*
X016359Y010604D01*
X016416Y010643D01*
X016474Y010679D01*
X016535Y010712D01*
X016597Y010742D01*
X016661Y010768D01*
X016727Y010790D01*
X016793Y010809D01*
X016860Y010824D01*
X016928Y010835D01*
X016997Y010843D01*
X017066Y010847D01*
X017134Y010847D01*
X017203Y010843D01*
X017272Y010835D01*
X017340Y010824D01*
X017407Y010809D01*
X017473Y010790D01*
X017539Y010768D01*
X017603Y010742D01*
X017665Y010712D01*
X017726Y010679D01*
X017784Y010643D01*
X017841Y010604D01*
X017895Y010562D01*
X017947Y010516D01*
X017997Y010468D01*
X018043Y010418D01*
X018087Y010364D01*
X018128Y010309D01*
X018166Y010251D01*
X018200Y010191D01*
X018231Y010130D01*
X018259Y010067D01*
X018283Y010002D01*
X018304Y009936D01*
X018321Y009869D01*
D15*
X018318Y008217D02*
X018218Y008217D01*
X018170Y008192D02*
X018145Y008217D01*
X018095Y008217D01*
X018070Y008192D01*
X018070Y008092D01*
X018095Y008067D01*
X018145Y008067D01*
X018170Y008092D01*
X018218Y008092D02*
X018218Y008067D01*
X018218Y008092D02*
X018318Y008192D01*
X018318Y008217D01*
X027067Y010370D02*
X027092Y010345D01*
X027192Y010345D01*
X027217Y010370D01*
X027217Y010420D01*
X027192Y010445D01*
X027142Y010492D02*
X027142Y010593D01*
X027217Y010568D02*
X027067Y010568D01*
X027142Y010492D01*
X027092Y010445D02*
X027067Y010420D01*
X027067Y010370D01*
X027067Y005093D02*
X027067Y004992D01*
X027142Y004992D01*
X027117Y005043D01*
X027117Y005068D01*
X027142Y005093D01*
X027192Y005093D01*
X027217Y005068D01*
X027217Y005018D01*
X027192Y004992D01*
X027192Y004945D02*
X027217Y004920D01*
X027217Y004870D01*
X027192Y004845D01*
X027092Y004845D01*
X027067Y004870D01*
X027067Y004920D01*
X027092Y004945D01*
X027092Y015845D02*
X027192Y015845D01*
X027217Y015870D01*
X027217Y015920D01*
X027192Y015945D01*
X027192Y015992D02*
X027217Y016018D01*
X027217Y016068D01*
X027192Y016093D01*
X027167Y016093D01*
X027142Y016068D01*
X027142Y016043D01*
X027142Y016068D02*
X027117Y016093D01*
X027092Y016093D01*
X027067Y016068D01*
X027067Y016018D01*
X027092Y015992D01*
X027092Y015945D02*
X027067Y015920D01*
X027067Y015870D01*
X027092Y015845D01*
X027092Y021345D02*
X027192Y021345D01*
X027217Y021370D01*
X027217Y021420D01*
X027192Y021445D01*
X027217Y021492D02*
X027117Y021593D01*
X027092Y021593D01*
X027067Y021568D01*
X027067Y021518D01*
X027092Y021492D01*
X027092Y021445D02*
X027067Y021420D01*
X027067Y021370D01*
X027092Y021345D01*
X027217Y021492D02*
X027217Y021593D01*
D16*
X026395Y022502D02*
X025824Y022502D01*
X026100Y022915D01*
X026395Y022502D01*
X030948Y022049D02*
X030948Y021340D01*
X030949Y022048D02*
X030978Y022089D01*
X031010Y022128D01*
X031045Y022165D01*
X031082Y022198D01*
X031122Y022229D01*
X031164Y022256D01*
X031208Y022281D01*
X031254Y022301D01*
X031302Y022318D01*
X031350Y022332D01*
X031400Y022341D01*
X031450Y022347D01*
X031500Y022349D01*
X031550Y022347D01*
X031600Y022341D01*
X031650Y022332D01*
X031698Y022318D01*
X031746Y022301D01*
X031792Y022281D01*
X031836Y022256D01*
X031878Y022229D01*
X031918Y022198D01*
X031955Y022165D01*
X031990Y022128D01*
X032022Y022089D01*
X032051Y022048D01*
X032011Y022088D02*
X032287Y022088D01*
X032287Y021301D02*
X032011Y021301D01*
X032051Y021340D02*
X032022Y021299D01*
X031990Y021260D01*
X031955Y021223D01*
X031918Y021190D01*
X031878Y021159D01*
X031836Y021132D01*
X031792Y021107D01*
X031746Y021087D01*
X031698Y021070D01*
X031650Y021056D01*
X031600Y021047D01*
X031550Y021041D01*
X031500Y021039D01*
X031450Y021041D01*
X031400Y021047D01*
X031350Y021056D01*
X031302Y021070D01*
X031254Y021087D01*
X031208Y021107D01*
X031164Y021132D01*
X031122Y021159D01*
X031082Y021190D01*
X031045Y021223D01*
X031010Y021260D01*
X030978Y021299D01*
X030949Y021340D01*
X032326Y020828D02*
X032326Y023466D01*
X032298Y023468D01*
X032270Y023473D01*
X032243Y023483D01*
X032218Y023495D01*
X032194Y023511D01*
X032173Y023530D01*
X032154Y023551D01*
X032138Y023575D01*
X032126Y023600D01*
X032116Y023627D01*
X032111Y023655D01*
X032109Y023683D01*
X032111Y023711D01*
X032116Y023739D01*
X032126Y023766D01*
X032138Y023792D01*
X032154Y023815D01*
X032173Y023836D01*
X032194Y023855D01*
X032218Y023871D01*
X032243Y023883D01*
X032270Y023893D01*
X032298Y023898D01*
X032326Y023900D01*
X032326Y023899D02*
X032326Y024529D01*
X034374Y024529D01*
X034374Y020828D01*
X032326Y020828D01*
X032326Y019029D02*
X034374Y019029D01*
X034374Y015328D01*
X032326Y015328D01*
X032326Y017966D01*
X032298Y017968D01*
X032270Y017973D01*
X032243Y017983D01*
X032218Y017995D01*
X032194Y018011D01*
X032173Y018030D01*
X032154Y018051D01*
X032138Y018075D01*
X032126Y018100D01*
X032116Y018127D01*
X032111Y018155D01*
X032109Y018183D01*
X032111Y018211D01*
X032116Y018239D01*
X032126Y018266D01*
X032138Y018292D01*
X032154Y018315D01*
X032173Y018336D01*
X032194Y018355D01*
X032218Y018371D01*
X032243Y018383D01*
X032270Y018393D01*
X032298Y018398D01*
X032326Y018400D01*
X032326Y018399D02*
X032326Y019029D01*
X034413Y021301D02*
X034689Y021301D01*
X034649Y022048D02*
X034678Y022089D01*
X034710Y022128D01*
X034745Y022165D01*
X034782Y022198D01*
X034822Y022229D01*
X034864Y022256D01*
X034908Y022281D01*
X034954Y022301D01*
X035002Y022318D01*
X035050Y022332D01*
X035100Y022341D01*
X035150Y022347D01*
X035200Y022349D01*
X035250Y022347D01*
X035300Y022341D01*
X035350Y022332D01*
X035398Y022318D01*
X035446Y022301D01*
X035492Y022281D01*
X035536Y022256D01*
X035578Y022229D01*
X035618Y022198D01*
X035655Y022165D01*
X035690Y022128D01*
X035722Y022089D01*
X035751Y022048D01*
X035752Y022049D02*
X035752Y021340D01*
X035751Y021340D02*
X035722Y021299D01*
X035690Y021260D01*
X035655Y021223D01*
X035618Y021190D01*
X035578Y021159D01*
X035536Y021132D01*
X035492Y021107D01*
X035446Y021087D01*
X035398Y021070D01*
X035350Y021056D01*
X035300Y021047D01*
X035250Y021041D01*
X035200Y021039D01*
X035150Y021041D01*
X035100Y021047D01*
X035050Y021056D01*
X035002Y021070D01*
X034954Y021087D01*
X034908Y021107D01*
X034864Y021132D01*
X034822Y021159D01*
X034782Y021190D01*
X034745Y021223D01*
X034710Y021260D01*
X034678Y021299D01*
X034649Y021340D01*
X034689Y022088D02*
X034413Y022088D01*
X034600Y027037D02*
X031350Y027037D01*
X031350Y030163D01*
X034600Y030163D01*
X034600Y029850D01*
X034850Y029850D01*
X034600Y029850D02*
X034600Y029100D01*
X032350Y029100D01*
X032350Y028100D01*
X034600Y028100D01*
X034600Y027350D01*
X034850Y027350D01*
X034600Y027350D02*
X034600Y027037D01*
X035913Y027037D01*
X035913Y030163D01*
X034600Y030163D01*
X034850Y029850D02*
X034894Y029848D01*
X034937Y029842D01*
X034979Y029833D01*
X035021Y029820D01*
X035061Y029803D01*
X035100Y029783D01*
X035137Y029760D01*
X035171Y029733D01*
X035204Y029704D01*
X035233Y029671D01*
X035260Y029637D01*
X035283Y029600D01*
X035303Y029561D01*
X035320Y029521D01*
X035333Y029479D01*
X035342Y029437D01*
X035348Y029394D01*
X035350Y029350D01*
X035350Y027850D01*
X035348Y027806D01*
X035342Y027763D01*
X035333Y027721D01*
X035320Y027679D01*
X035303Y027639D01*
X035283Y027600D01*
X035260Y027563D01*
X035233Y027529D01*
X035204Y027496D01*
X035171Y027467D01*
X035137Y027440D01*
X035100Y027417D01*
X035061Y027397D01*
X035021Y027380D01*
X034979Y027367D01*
X034937Y027358D01*
X034894Y027352D01*
X034850Y027350D01*
X026895Y028502D02*
X026324Y028502D01*
X026600Y028915D01*
X026895Y028502D01*
X026100Y017415D02*
X025824Y017002D01*
X026395Y017002D01*
X026100Y017415D01*
X030948Y016549D02*
X030948Y015840D01*
X030949Y016548D02*
X030978Y016589D01*
X031010Y016628D01*
X031045Y016665D01*
X031082Y016698D01*
X031122Y016729D01*
X031164Y016756D01*
X031208Y016781D01*
X031254Y016801D01*
X031302Y016818D01*
X031350Y016832D01*
X031400Y016841D01*
X031450Y016847D01*
X031500Y016849D01*
X031550Y016847D01*
X031600Y016841D01*
X031650Y016832D01*
X031698Y016818D01*
X031746Y016801D01*
X031792Y016781D01*
X031836Y016756D01*
X031878Y016729D01*
X031918Y016698D01*
X031955Y016665D01*
X031990Y016628D01*
X032022Y016589D01*
X032051Y016548D01*
X032011Y016588D02*
X032287Y016588D01*
X032287Y015801D02*
X032011Y015801D01*
X032051Y015840D02*
X032022Y015799D01*
X031990Y015760D01*
X031955Y015723D01*
X031918Y015690D01*
X031878Y015659D01*
X031836Y015632D01*
X031792Y015607D01*
X031746Y015587D01*
X031698Y015570D01*
X031650Y015556D01*
X031600Y015547D01*
X031550Y015541D01*
X031500Y015539D01*
X031450Y015541D01*
X031400Y015547D01*
X031350Y015556D01*
X031302Y015570D01*
X031254Y015587D01*
X031208Y015607D01*
X031164Y015632D01*
X031122Y015659D01*
X031082Y015690D01*
X031045Y015723D01*
X031010Y015760D01*
X030978Y015799D01*
X030949Y015840D01*
X032326Y013529D02*
X034374Y013529D01*
X034374Y009828D01*
X032326Y009828D01*
X032326Y012466D01*
X032298Y012468D01*
X032270Y012473D01*
X032243Y012483D01*
X032218Y012495D01*
X032194Y012511D01*
X032173Y012530D01*
X032154Y012551D01*
X032138Y012575D01*
X032126Y012600D01*
X032116Y012627D01*
X032111Y012655D01*
X032109Y012683D01*
X032111Y012711D01*
X032116Y012739D01*
X032126Y012766D01*
X032138Y012792D01*
X032154Y012815D01*
X032173Y012836D01*
X032194Y012855D01*
X032218Y012871D01*
X032243Y012883D01*
X032270Y012893D01*
X032298Y012898D01*
X032326Y012900D01*
X032326Y012899D02*
X032326Y013529D01*
X034413Y015801D02*
X034689Y015801D01*
X034649Y016548D02*
X034678Y016589D01*
X034710Y016628D01*
X034745Y016665D01*
X034782Y016698D01*
X034822Y016729D01*
X034864Y016756D01*
X034908Y016781D01*
X034954Y016801D01*
X035002Y016818D01*
X035050Y016832D01*
X035100Y016841D01*
X035150Y016847D01*
X035200Y016849D01*
X035250Y016847D01*
X035300Y016841D01*
X035350Y016832D01*
X035398Y016818D01*
X035446Y016801D01*
X035492Y016781D01*
X035536Y016756D01*
X035578Y016729D01*
X035618Y016698D01*
X035655Y016665D01*
X035690Y016628D01*
X035722Y016589D01*
X035751Y016548D01*
X035752Y016549D02*
X035752Y015840D01*
X035751Y015840D02*
X035722Y015799D01*
X035690Y015760D01*
X035655Y015723D01*
X035618Y015690D01*
X035578Y015659D01*
X035536Y015632D01*
X035492Y015607D01*
X035446Y015587D01*
X035398Y015570D01*
X035350Y015556D01*
X035300Y015547D01*
X035250Y015541D01*
X035200Y015539D01*
X035150Y015541D01*
X035100Y015547D01*
X035050Y015556D01*
X035002Y015570D01*
X034954Y015587D01*
X034908Y015607D01*
X034864Y015632D01*
X034822Y015659D01*
X034782Y015690D01*
X034745Y015723D01*
X034710Y015760D01*
X034678Y015799D01*
X034649Y015840D01*
X034689Y016588D02*
X034413Y016588D01*
X034413Y011088D02*
X034689Y011088D01*
X034649Y010340D02*
X034678Y010299D01*
X034710Y010260D01*
X034745Y010223D01*
X034782Y010190D01*
X034822Y010159D01*
X034864Y010132D01*
X034908Y010107D01*
X034954Y010087D01*
X035002Y010070D01*
X035050Y010056D01*
X035100Y010047D01*
X035150Y010041D01*
X035200Y010039D01*
X035250Y010041D01*
X035300Y010047D01*
X035350Y010056D01*
X035398Y010070D01*
X035446Y010087D01*
X035492Y010107D01*
X035536Y010132D01*
X035578Y010159D01*
X035618Y010190D01*
X035655Y010223D01*
X035690Y010260D01*
X035722Y010299D01*
X035751Y010340D01*
X035752Y010340D02*
X035752Y011049D01*
X035751Y011048D02*
X035722Y011089D01*
X035690Y011128D01*
X035655Y011165D01*
X035618Y011198D01*
X035578Y011229D01*
X035536Y011256D01*
X035492Y011281D01*
X035446Y011301D01*
X035398Y011318D01*
X035350Y011332D01*
X035300Y011341D01*
X035250Y011347D01*
X035200Y011349D01*
X035150Y011347D01*
X035100Y011341D01*
X035050Y011332D01*
X035002Y011318D01*
X034954Y011301D01*
X034908Y011281D01*
X034864Y011256D01*
X034822Y011229D01*
X034782Y011198D01*
X034745Y011165D01*
X034710Y011128D01*
X034678Y011089D01*
X034649Y011048D01*
X034689Y010301D02*
X034413Y010301D01*
X032287Y010301D02*
X032011Y010301D01*
X032051Y010340D02*
X032022Y010299D01*
X031990Y010260D01*
X031955Y010223D01*
X031918Y010190D01*
X031878Y010159D01*
X031836Y010132D01*
X031792Y010107D01*
X031746Y010087D01*
X031698Y010070D01*
X031650Y010056D01*
X031600Y010047D01*
X031550Y010041D01*
X031500Y010039D01*
X031450Y010041D01*
X031400Y010047D01*
X031350Y010056D01*
X031302Y010070D01*
X031254Y010087D01*
X031208Y010107D01*
X031164Y010132D01*
X031122Y010159D01*
X031082Y010190D01*
X031045Y010223D01*
X031010Y010260D01*
X030978Y010299D01*
X030949Y010340D01*
X030948Y010340D02*
X030948Y011049D01*
X030949Y011048D02*
X030978Y011089D01*
X031010Y011128D01*
X031045Y011165D01*
X031082Y011198D01*
X031122Y011229D01*
X031164Y011256D01*
X031208Y011281D01*
X031254Y011301D01*
X031302Y011318D01*
X031350Y011332D01*
X031400Y011341D01*
X031450Y011347D01*
X031500Y011349D01*
X031550Y011347D01*
X031600Y011341D01*
X031650Y011332D01*
X031698Y011318D01*
X031746Y011301D01*
X031792Y011281D01*
X031836Y011256D01*
X031878Y011229D01*
X031918Y011198D01*
X031955Y011165D01*
X031990Y011128D01*
X032022Y011089D01*
X032051Y011048D01*
X032011Y011088D02*
X032287Y011088D01*
X032326Y008029D02*
X034374Y008029D01*
X034374Y004328D01*
X032326Y004328D01*
X032326Y006966D01*
X032298Y006968D01*
X032270Y006973D01*
X032243Y006983D01*
X032218Y006995D01*
X032194Y007011D01*
X032173Y007030D01*
X032154Y007051D01*
X032138Y007075D01*
X032126Y007100D01*
X032116Y007127D01*
X032111Y007155D01*
X032109Y007183D01*
X032111Y007211D01*
X032116Y007239D01*
X032126Y007266D01*
X032138Y007292D01*
X032154Y007315D01*
X032173Y007336D01*
X032194Y007355D01*
X032218Y007371D01*
X032243Y007383D01*
X032270Y007393D01*
X032298Y007398D01*
X032326Y007400D01*
X032326Y007399D02*
X032326Y008029D01*
X032287Y005588D02*
X032011Y005588D01*
X032051Y004840D02*
X032022Y004799D01*
X031990Y004760D01*
X031955Y004723D01*
X031918Y004690D01*
X031878Y004659D01*
X031836Y004632D01*
X031792Y004607D01*
X031746Y004587D01*
X031698Y004570D01*
X031650Y004556D01*
X031600Y004547D01*
X031550Y004541D01*
X031500Y004539D01*
X031450Y004541D01*
X031400Y004547D01*
X031350Y004556D01*
X031302Y004570D01*
X031254Y004587D01*
X031208Y004607D01*
X031164Y004632D01*
X031122Y004659D01*
X031082Y004690D01*
X031045Y004723D01*
X031010Y004760D01*
X030978Y004799D01*
X030949Y004840D01*
X030948Y004840D02*
X030948Y005549D01*
X030949Y005548D02*
X030978Y005589D01*
X031010Y005628D01*
X031045Y005665D01*
X031082Y005698D01*
X031122Y005729D01*
X031164Y005756D01*
X031208Y005781D01*
X031254Y005801D01*
X031302Y005818D01*
X031350Y005832D01*
X031400Y005841D01*
X031450Y005847D01*
X031500Y005849D01*
X031550Y005847D01*
X031600Y005841D01*
X031650Y005832D01*
X031698Y005818D01*
X031746Y005801D01*
X031792Y005781D01*
X031836Y005756D01*
X031878Y005729D01*
X031918Y005698D01*
X031955Y005665D01*
X031990Y005628D01*
X032022Y005589D01*
X032051Y005548D01*
X032011Y004801D02*
X032287Y004801D01*
X034413Y004801D02*
X034689Y004801D01*
X034649Y005548D02*
X034678Y005589D01*
X034710Y005628D01*
X034745Y005665D01*
X034782Y005698D01*
X034822Y005729D01*
X034864Y005756D01*
X034908Y005781D01*
X034954Y005801D01*
X035002Y005818D01*
X035050Y005832D01*
X035100Y005841D01*
X035150Y005847D01*
X035200Y005849D01*
X035250Y005847D01*
X035300Y005841D01*
X035350Y005832D01*
X035398Y005818D01*
X035446Y005801D01*
X035492Y005781D01*
X035536Y005756D01*
X035578Y005729D01*
X035618Y005698D01*
X035655Y005665D01*
X035690Y005628D01*
X035722Y005589D01*
X035751Y005548D01*
X035752Y005549D02*
X035752Y004840D01*
X035751Y004840D02*
X035722Y004799D01*
X035690Y004760D01*
X035655Y004723D01*
X035618Y004690D01*
X035578Y004659D01*
X035536Y004632D01*
X035492Y004607D01*
X035446Y004587D01*
X035398Y004570D01*
X035350Y004556D01*
X035300Y004547D01*
X035250Y004541D01*
X035200Y004539D01*
X035150Y004541D01*
X035100Y004547D01*
X035050Y004556D01*
X035002Y004570D01*
X034954Y004587D01*
X034908Y004607D01*
X034864Y004632D01*
X034822Y004659D01*
X034782Y004690D01*
X034745Y004723D01*
X034710Y004760D01*
X034678Y004799D01*
X034649Y004840D01*
X034689Y005588D02*
X034413Y005588D01*
X026395Y006002D02*
X025824Y006002D01*
X026100Y006415D01*
X026395Y006002D01*
X026395Y011502D02*
X025824Y011502D01*
X026100Y011915D01*
X026395Y011502D01*
X018872Y004124D02*
X015171Y004124D01*
X015171Y002076D01*
X015801Y002076D01*
X015800Y002076D02*
X015802Y002048D01*
X015807Y002020D01*
X015817Y001993D01*
X015829Y001968D01*
X015845Y001944D01*
X015864Y001923D01*
X015885Y001904D01*
X015909Y001888D01*
X015934Y001876D01*
X015961Y001866D01*
X015989Y001861D01*
X016017Y001859D01*
X016045Y001861D01*
X016073Y001866D01*
X016100Y001876D01*
X016126Y001888D01*
X016149Y001904D01*
X016170Y001923D01*
X016189Y001944D01*
X016205Y001967D01*
X016217Y001993D01*
X016227Y002020D01*
X016232Y002048D01*
X016234Y002076D01*
X018872Y002076D01*
X018872Y004124D01*
X018399Y004163D02*
X018399Y004439D01*
X017652Y004399D02*
X017611Y004428D01*
X017572Y004460D01*
X017535Y004495D01*
X017502Y004532D01*
X017471Y004572D01*
X017444Y004614D01*
X017419Y004658D01*
X017399Y004704D01*
X017382Y004752D01*
X017368Y004800D01*
X017359Y004850D01*
X017353Y004900D01*
X017351Y004950D01*
X017353Y005000D01*
X017359Y005050D01*
X017368Y005100D01*
X017382Y005148D01*
X017399Y005196D01*
X017419Y005242D01*
X017444Y005286D01*
X017471Y005328D01*
X017502Y005368D01*
X017535Y005405D01*
X017572Y005440D01*
X017611Y005472D01*
X017652Y005501D01*
X017651Y005502D02*
X018360Y005502D01*
X018360Y005501D02*
X018401Y005472D01*
X018440Y005440D01*
X018477Y005405D01*
X018510Y005368D01*
X018541Y005328D01*
X018568Y005286D01*
X018593Y005242D01*
X018613Y005196D01*
X018630Y005148D01*
X018644Y005100D01*
X018653Y005050D01*
X018659Y005000D01*
X018661Y004950D01*
X018659Y004900D01*
X018653Y004850D01*
X018644Y004800D01*
X018630Y004752D01*
X018613Y004704D01*
X018593Y004658D01*
X018568Y004614D01*
X018541Y004572D01*
X018510Y004532D01*
X018477Y004495D01*
X018440Y004460D01*
X018401Y004428D01*
X018360Y004399D01*
X017612Y004439D02*
X017612Y004163D01*
X017612Y002037D02*
X017612Y001761D01*
X018360Y001801D02*
X018401Y001772D01*
X018440Y001740D01*
X018477Y001705D01*
X018510Y001668D01*
X018541Y001628D01*
X018568Y001586D01*
X018593Y001542D01*
X018613Y001496D01*
X018630Y001448D01*
X018644Y001400D01*
X018653Y001350D01*
X018659Y001300D01*
X018661Y001250D01*
X018659Y001200D01*
X018653Y001150D01*
X018644Y001100D01*
X018630Y001052D01*
X018613Y001004D01*
X018593Y000958D01*
X018568Y000914D01*
X018541Y000872D01*
X018510Y000832D01*
X018477Y000795D01*
X018440Y000760D01*
X018401Y000728D01*
X018360Y000699D01*
X018360Y000698D02*
X017651Y000698D01*
X017652Y000699D02*
X017611Y000728D01*
X017572Y000760D01*
X017535Y000795D01*
X017502Y000832D01*
X017471Y000872D01*
X017444Y000914D01*
X017419Y000958D01*
X017399Y001004D01*
X017382Y001052D01*
X017368Y001100D01*
X017359Y001150D01*
X017353Y001200D01*
X017351Y001250D01*
X017353Y001300D01*
X017359Y001350D01*
X017368Y001400D01*
X017382Y001448D01*
X017399Y001496D01*
X017419Y001542D01*
X017444Y001586D01*
X017471Y001628D01*
X017502Y001668D01*
X017535Y001705D01*
X017572Y001740D01*
X017611Y001772D01*
X017652Y001801D01*
X018399Y001761D02*
X018399Y002037D01*
X012372Y002076D02*
X009734Y002076D01*
X009732Y002048D01*
X009727Y002020D01*
X009717Y001993D01*
X009705Y001967D01*
X009689Y001944D01*
X009670Y001923D01*
X009649Y001904D01*
X009626Y001888D01*
X009600Y001876D01*
X009573Y001866D01*
X009545Y001861D01*
X009517Y001859D01*
X009489Y001861D01*
X009461Y001866D01*
X009434Y001876D01*
X009409Y001888D01*
X009385Y001904D01*
X009364Y001923D01*
X009345Y001944D01*
X009329Y001968D01*
X009317Y001993D01*
X009307Y002020D01*
X009302Y002048D01*
X009300Y002076D01*
X009301Y002076D02*
X008671Y002076D01*
X008671Y004124D01*
X012372Y004124D01*
X012372Y002076D01*
X011899Y002037D02*
X011899Y001761D01*
X011152Y001801D02*
X011111Y001772D01*
X011072Y001740D01*
X011035Y001705D01*
X011002Y001668D01*
X010971Y001628D01*
X010944Y001586D01*
X010919Y001542D01*
X010899Y001496D01*
X010882Y001448D01*
X010868Y001400D01*
X010859Y001350D01*
X010853Y001300D01*
X010851Y001250D01*
X010853Y001200D01*
X010859Y001150D01*
X010868Y001100D01*
X010882Y001052D01*
X010899Y001004D01*
X010919Y000958D01*
X010944Y000914D01*
X010971Y000872D01*
X011002Y000832D01*
X011035Y000795D01*
X011072Y000760D01*
X011111Y000728D01*
X011152Y000699D01*
X011151Y000698D02*
X011860Y000698D01*
X011860Y000699D02*
X011901Y000728D01*
X011940Y000760D01*
X011977Y000795D01*
X012010Y000832D01*
X012041Y000872D01*
X012068Y000914D01*
X012093Y000958D01*
X012113Y001004D01*
X012130Y001052D01*
X012144Y001100D01*
X012153Y001150D01*
X012159Y001200D01*
X012161Y001250D01*
X012159Y001300D01*
X012153Y001350D01*
X012144Y001400D01*
X012130Y001448D01*
X012113Y001496D01*
X012093Y001542D01*
X012068Y001586D01*
X012041Y001628D01*
X012010Y001668D01*
X011977Y001705D01*
X011940Y001740D01*
X011901Y001772D01*
X011860Y001801D01*
X011112Y001761D02*
X011112Y002037D01*
X011112Y004163D02*
X011112Y004439D01*
X011860Y004399D02*
X011901Y004428D01*
X011940Y004460D01*
X011977Y004495D01*
X012010Y004532D01*
X012041Y004572D01*
X012068Y004614D01*
X012093Y004658D01*
X012113Y004704D01*
X012130Y004752D01*
X012144Y004800D01*
X012153Y004850D01*
X012159Y004900D01*
X012161Y004950D01*
X012159Y005000D01*
X012153Y005050D01*
X012144Y005100D01*
X012130Y005148D01*
X012113Y005196D01*
X012093Y005242D01*
X012068Y005286D01*
X012041Y005328D01*
X012010Y005368D01*
X011977Y005405D01*
X011940Y005440D01*
X011901Y005472D01*
X011860Y005501D01*
X011860Y005502D02*
X011151Y005502D01*
X011152Y005501D02*
X011111Y005472D01*
X011072Y005440D01*
X011035Y005405D01*
X011002Y005368D01*
X010971Y005328D01*
X010944Y005286D01*
X010919Y005242D01*
X010899Y005196D01*
X010882Y005148D01*
X010868Y005100D01*
X010859Y005050D01*
X010853Y005000D01*
X010851Y004950D01*
X010853Y004900D01*
X010859Y004850D01*
X010868Y004800D01*
X010882Y004752D01*
X010899Y004704D01*
X010919Y004658D01*
X010944Y004614D01*
X010971Y004572D01*
X011002Y004532D01*
X011035Y004495D01*
X011072Y004460D01*
X011111Y004428D01*
X011152Y004399D01*
X011899Y004439D02*
X011899Y004163D01*
X005350Y009537D02*
X005350Y012663D01*
X002100Y012663D01*
X000787Y012663D01*
X000787Y009537D01*
X002100Y009537D01*
X005350Y009537D01*
X004350Y010600D02*
X004350Y011600D01*
X002100Y011600D01*
X002100Y012350D01*
X001850Y012350D01*
X002100Y012350D02*
X002100Y012663D01*
X001850Y012350D02*
X001806Y012348D01*
X001763Y012342D01*
X001721Y012333D01*
X001679Y012320D01*
X001639Y012303D01*
X001600Y012283D01*
X001563Y012260D01*
X001529Y012233D01*
X001496Y012204D01*
X001467Y012171D01*
X001440Y012137D01*
X001417Y012100D01*
X001397Y012061D01*
X001380Y012021D01*
X001367Y011979D01*
X001358Y011937D01*
X001352Y011894D01*
X001350Y011850D01*
X001350Y010350D01*
X001352Y010306D01*
X001358Y010263D01*
X001367Y010221D01*
X001380Y010179D01*
X001397Y010139D01*
X001417Y010100D01*
X001440Y010063D01*
X001467Y010029D01*
X001496Y009996D01*
X001529Y009967D01*
X001563Y009940D01*
X001600Y009917D01*
X001639Y009897D01*
X001679Y009880D01*
X001721Y009867D01*
X001763Y009858D01*
X001806Y009852D01*
X001850Y009850D01*
X002100Y009850D01*
X002100Y010600D01*
X004350Y010600D01*
X002100Y009850D02*
X002100Y009537D01*
X002100Y015537D02*
X000787Y015537D01*
X000787Y018663D01*
X002100Y018663D01*
X005350Y018663D01*
X005350Y015537D01*
X002100Y015537D01*
X002100Y015850D01*
X001850Y015850D01*
X002100Y015850D02*
X002100Y016600D01*
X004350Y016600D01*
X004350Y017600D01*
X002100Y017600D01*
X002100Y018350D01*
X001850Y018350D01*
X002100Y018350D02*
X002100Y018663D01*
X001850Y018350D02*
X001806Y018348D01*
X001763Y018342D01*
X001721Y018333D01*
X001679Y018320D01*
X001639Y018303D01*
X001600Y018283D01*
X001563Y018260D01*
X001529Y018233D01*
X001496Y018204D01*
X001467Y018171D01*
X001440Y018137D01*
X001417Y018100D01*
X001397Y018061D01*
X001380Y018021D01*
X001367Y017979D01*
X001358Y017937D01*
X001352Y017894D01*
X001350Y017850D01*
X001350Y016350D01*
X001352Y016306D01*
X001358Y016263D01*
X001367Y016221D01*
X001380Y016179D01*
X001397Y016139D01*
X001417Y016100D01*
X001440Y016063D01*
X001467Y016029D01*
X001496Y015996D01*
X001529Y015967D01*
X001563Y015940D01*
X001600Y015917D01*
X001639Y015897D01*
X001679Y015880D01*
X001721Y015867D01*
X001763Y015858D01*
X001806Y015852D01*
X001850Y015850D01*
X002100Y021537D02*
X000787Y021537D01*
X000787Y024663D01*
X002100Y024663D01*
X005350Y024663D01*
X005350Y021537D01*
X002100Y021537D01*
X002100Y021850D01*
X001850Y021850D01*
X002100Y021850D02*
X002100Y022600D01*
X004350Y022600D01*
X004350Y023600D01*
X002100Y023600D01*
X002100Y024350D01*
X001850Y024350D01*
X002100Y024350D02*
X002100Y024663D01*
X001850Y024350D02*
X001806Y024348D01*
X001763Y024342D01*
X001721Y024333D01*
X001679Y024320D01*
X001639Y024303D01*
X001600Y024283D01*
X001563Y024260D01*
X001529Y024233D01*
X001496Y024204D01*
X001467Y024171D01*
X001440Y024137D01*
X001417Y024100D01*
X001397Y024061D01*
X001380Y024021D01*
X001367Y023979D01*
X001358Y023937D01*
X001352Y023894D01*
X001350Y023850D01*
X001350Y022350D01*
X001352Y022306D01*
X001358Y022263D01*
X001367Y022221D01*
X001380Y022179D01*
X001397Y022139D01*
X001417Y022100D01*
X001440Y022063D01*
X001467Y022029D01*
X001496Y021996D01*
X001529Y021967D01*
X001563Y021940D01*
X001600Y021917D01*
X001639Y021897D01*
X001679Y021880D01*
X001721Y021867D01*
X001763Y021858D01*
X001806Y021852D01*
X001850Y021850D01*
X002100Y027537D02*
X000787Y027537D01*
X000787Y030663D01*
X002100Y030663D01*
X005350Y030663D01*
X005350Y027537D01*
X002100Y027537D01*
X002100Y027850D01*
X001850Y027850D01*
X002100Y027850D02*
X002100Y028600D01*
X004350Y028600D01*
X004350Y029600D01*
X002100Y029600D01*
X002100Y030350D01*
X001850Y030350D01*
X002100Y030350D02*
X002100Y030663D01*
X001850Y030350D02*
X001806Y030348D01*
X001763Y030342D01*
X001721Y030333D01*
X001679Y030320D01*
X001639Y030303D01*
X001600Y030283D01*
X001563Y030260D01*
X001529Y030233D01*
X001496Y030204D01*
X001467Y030171D01*
X001440Y030137D01*
X001417Y030100D01*
X001397Y030061D01*
X001380Y030021D01*
X001367Y029979D01*
X001358Y029937D01*
X001352Y029894D01*
X001350Y029850D01*
X001350Y028350D01*
X001352Y028306D01*
X001358Y028263D01*
X001367Y028221D01*
X001380Y028179D01*
X001397Y028139D01*
X001417Y028100D01*
X001440Y028063D01*
X001467Y028029D01*
X001496Y027996D01*
X001529Y027967D01*
X001563Y027940D01*
X001600Y027917D01*
X001639Y027897D01*
X001679Y027880D01*
X001721Y027867D01*
X001763Y027858D01*
X001806Y027852D01*
X001850Y027850D01*
X007600Y034350D02*
X007557Y034296D01*
X007511Y034244D01*
X007462Y034195D01*
X007410Y034148D01*
X007356Y034105D01*
X007300Y034064D01*
X007241Y034027D01*
X007181Y033993D01*
X007118Y033963D01*
X007055Y033936D01*
X006989Y033912D01*
X006923Y033892D01*
X006855Y033876D01*
X006787Y033864D01*
X006718Y033856D01*
X006649Y033851D01*
X006579Y033850D01*
X006510Y033853D01*
X006441Y033860D01*
X006373Y033871D01*
X006305Y033885D01*
X006238Y033904D01*
X006172Y033926D01*
X006107Y033951D01*
X006044Y033980D01*
X005983Y034013D01*
X005924Y034049D01*
X005867Y034088D01*
X005811Y034130D01*
X005759Y034175D01*
X005709Y034223D01*
X005662Y034274D01*
X005617Y034328D01*
X005576Y034383D01*
X005538Y034441D01*
X005503Y034501D01*
X005471Y034563D01*
X005443Y034626D01*
X005419Y034691D01*
X005398Y034757D01*
X005381Y034825D01*
X005367Y034893D01*
X005358Y034962D01*
X005352Y035031D01*
X005350Y035100D01*
X005352Y035169D01*
X005358Y035238D01*
X005367Y035307D01*
X005381Y035375D01*
X005398Y035443D01*
X005419Y035509D01*
X005443Y035574D01*
X005471Y035637D01*
X005503Y035699D01*
X005538Y035759D01*
X005576Y035817D01*
X005617Y035872D01*
X005662Y035926D01*
X005709Y035977D01*
X005759Y036025D01*
X005811Y036070D01*
X005867Y036112D01*
X005924Y036151D01*
X005983Y036187D01*
X006044Y036220D01*
X006107Y036249D01*
X006172Y036274D01*
X006238Y036296D01*
X006305Y036315D01*
X006373Y036329D01*
X006441Y036340D01*
X006510Y036347D01*
X006579Y036350D01*
X006649Y036349D01*
X006718Y036344D01*
X006787Y036336D01*
X006855Y036324D01*
X006923Y036308D01*
X006989Y036288D01*
X007055Y036264D01*
X007118Y036237D01*
X007181Y036207D01*
X007241Y036173D01*
X007300Y036136D01*
X007356Y036095D01*
X007410Y036052D01*
X007462Y036005D01*
X007511Y035956D01*
X007557Y035904D01*
X007600Y035850D01*
X011100Y035850D02*
X011143Y035904D01*
X011189Y035956D01*
X011238Y036005D01*
X011290Y036052D01*
X011344Y036095D01*
X011400Y036136D01*
X011459Y036173D01*
X011519Y036207D01*
X011582Y036237D01*
X011645Y036264D01*
X011711Y036288D01*
X011777Y036308D01*
X011845Y036324D01*
X011913Y036336D01*
X011982Y036344D01*
X012051Y036349D01*
X012121Y036350D01*
X012190Y036347D01*
X012259Y036340D01*
X012327Y036329D01*
X012395Y036315D01*
X012462Y036296D01*
X012528Y036274D01*
X012593Y036249D01*
X012656Y036220D01*
X012717Y036187D01*
X012776Y036151D01*
X012833Y036112D01*
X012889Y036070D01*
X012941Y036025D01*
X012991Y035977D01*
X013038Y035926D01*
X013083Y035872D01*
X013124Y035817D01*
X013162Y035759D01*
X013197Y035699D01*
X013229Y035637D01*
X013257Y035574D01*
X013281Y035509D01*
X013302Y035443D01*
X013319Y035375D01*
X013333Y035307D01*
X013342Y035238D01*
X013348Y035169D01*
X013350Y035100D01*
X013348Y035031D01*
X013342Y034962D01*
X013333Y034893D01*
X013319Y034825D01*
X013302Y034757D01*
X013281Y034691D01*
X013257Y034626D01*
X013229Y034563D01*
X013197Y034501D01*
X013162Y034441D01*
X013124Y034383D01*
X013083Y034328D01*
X013038Y034274D01*
X012991Y034223D01*
X012941Y034175D01*
X012889Y034130D01*
X012833Y034088D01*
X012776Y034049D01*
X012717Y034013D01*
X012656Y033980D01*
X012593Y033951D01*
X012528Y033926D01*
X012462Y033904D01*
X012395Y033885D01*
X012327Y033871D01*
X012259Y033860D01*
X012190Y033853D01*
X012121Y033850D01*
X012051Y033851D01*
X011982Y033856D01*
X011913Y033864D01*
X011845Y033876D01*
X011777Y033892D01*
X011711Y033912D01*
X011645Y033936D01*
X011582Y033963D01*
X011519Y033993D01*
X011459Y034027D01*
X011400Y034064D01*
X011344Y034105D01*
X011290Y034148D01*
X011238Y034195D01*
X011189Y034244D01*
X011143Y034296D01*
X011100Y034350D01*
X012805Y022198D02*
X013376Y022198D01*
X013100Y021785D01*
X012805Y022198D01*
X017198Y012395D02*
X017198Y011824D01*
X016785Y012100D01*
X017198Y012395D01*
X010698Y011895D02*
X010698Y011324D01*
X010285Y011600D01*
X010698Y011895D01*
D17*
X010346Y012206D02*
X010346Y012281D01*
X010271Y012356D01*
X010046Y012356D01*
X010046Y012206D01*
X010121Y012131D01*
X010271Y012131D01*
X010346Y012206D01*
X010046Y012356D02*
X010196Y012507D01*
X010346Y012582D01*
X009886Y012507D02*
X009886Y012206D01*
X009811Y012131D01*
X009586Y012131D01*
X009586Y012582D01*
X009811Y012582D01*
X009886Y012507D01*
X011354Y013125D02*
X011354Y013575D01*
X011654Y013575D01*
X011504Y013350D02*
X011354Y013350D01*
X011815Y013350D02*
X011965Y013500D01*
X012115Y013575D01*
X012040Y013350D02*
X011815Y013350D01*
X011815Y013200D01*
X011890Y013125D01*
X012040Y013125D01*
X012115Y013200D01*
X012115Y013275D01*
X012040Y013350D01*
X016086Y013082D02*
X016086Y012631D01*
X016311Y012631D01*
X016386Y012706D01*
X016386Y013007D01*
X016311Y013082D01*
X016086Y013082D01*
X016546Y013082D02*
X016846Y013082D01*
X016846Y013007D01*
X016546Y012706D01*
X016546Y012631D01*
X017854Y013125D02*
X017854Y013575D01*
X018154Y013575D01*
X018315Y013575D02*
X018615Y013575D01*
X018615Y013500D01*
X018315Y013200D01*
X018315Y013125D01*
X018004Y013350D02*
X017854Y013350D01*
X021625Y015475D02*
X021625Y015775D01*
X021700Y015935D02*
X021625Y016010D01*
X021625Y016161D01*
X021700Y016236D01*
X021775Y016236D01*
X021850Y016161D01*
X021925Y016236D01*
X022000Y016236D01*
X022075Y016161D01*
X022075Y016010D01*
X022000Y015935D01*
X021850Y016086D02*
X021850Y016161D01*
X021850Y015625D02*
X021850Y015475D01*
X022075Y015475D02*
X021625Y015475D01*
X021850Y010736D02*
X021850Y010435D01*
X021625Y010661D01*
X022075Y010661D01*
X021850Y010125D02*
X021850Y009975D01*
X022075Y009975D02*
X021625Y009975D01*
X021625Y010275D01*
X021625Y005236D02*
X021625Y004935D01*
X021850Y004935D01*
X021775Y005086D01*
X021775Y005161D01*
X021850Y005236D01*
X022000Y005236D01*
X022075Y005161D01*
X022075Y005010D01*
X022000Y004935D01*
X021850Y004625D02*
X021850Y004475D01*
X022075Y004475D02*
X021625Y004475D01*
X021625Y004775D01*
X026631Y006244D02*
X026631Y006469D01*
X026706Y006544D01*
X027006Y006544D01*
X027081Y006469D01*
X027081Y006244D01*
X026631Y006244D01*
X026631Y006704D02*
X026856Y006704D01*
X026781Y006854D01*
X026781Y006929D01*
X026856Y007004D01*
X027006Y007004D01*
X027081Y006929D01*
X027081Y006779D01*
X027006Y006704D01*
X026631Y006704D02*
X026631Y007004D01*
X026631Y011744D02*
X026631Y011969D01*
X026706Y012044D01*
X027006Y012044D01*
X027081Y011969D01*
X027081Y011744D01*
X026631Y011744D01*
X026856Y012204D02*
X026856Y012504D01*
X026631Y012429D02*
X026856Y012204D01*
X027081Y012429D02*
X026631Y012429D01*
X026631Y017244D02*
X026631Y017469D01*
X026706Y017544D01*
X027006Y017544D01*
X027081Y017469D01*
X027081Y017244D01*
X026631Y017244D01*
X026706Y017704D02*
X026631Y017779D01*
X026631Y017929D01*
X026706Y018004D01*
X026781Y018004D01*
X026856Y017929D01*
X026931Y018004D01*
X027006Y018004D01*
X027081Y017929D01*
X027081Y017779D01*
X027006Y017704D01*
X026856Y017854D02*
X026856Y017929D01*
X026631Y022744D02*
X026631Y022969D01*
X026706Y023044D01*
X027006Y023044D01*
X027081Y022969D01*
X027081Y022744D01*
X026631Y022744D01*
X026706Y023204D02*
X026631Y023279D01*
X026631Y023429D01*
X026706Y023504D01*
X026781Y023504D01*
X027081Y023204D01*
X027081Y023504D01*
X023075Y025975D02*
X022625Y025975D01*
X022625Y026275D01*
X022775Y026435D02*
X022625Y026586D01*
X023075Y026586D01*
X023075Y026736D02*
X023075Y026435D01*
X022850Y026125D02*
X022850Y025975D01*
X019455Y022653D02*
X019455Y022353D01*
X019455Y022503D02*
X019005Y022503D01*
X019155Y022353D01*
X019080Y022193D02*
X019005Y022118D01*
X019005Y021967D01*
X019080Y021892D01*
X019380Y021892D01*
X019455Y021967D01*
X019455Y022118D01*
X019380Y022193D01*
X019455Y021736D02*
X019455Y021585D01*
X019455Y021660D02*
X019005Y021660D01*
X019005Y021585D02*
X019005Y021736D01*
X019005Y021425D02*
X019455Y021425D01*
X019455Y021125D02*
X019005Y021125D01*
X019155Y021275D01*
X019005Y021425D01*
X021625Y021510D02*
X021700Y021435D01*
X021625Y021510D02*
X021625Y021661D01*
X021700Y021736D01*
X021775Y021736D01*
X022075Y021435D01*
X022075Y021736D01*
X021625Y021275D02*
X021625Y020975D01*
X022075Y020975D01*
X021850Y020975D02*
X021850Y021125D01*
X027131Y028744D02*
X027131Y028969D01*
X027206Y029044D01*
X027506Y029044D01*
X027581Y028969D01*
X027581Y028744D01*
X027131Y028744D01*
X027281Y029204D02*
X027131Y029354D01*
X027581Y029354D01*
X027581Y029204D02*
X027581Y029504D01*
X012569Y022157D02*
X012419Y022307D01*
X012118Y022307D01*
X012118Y022006D02*
X012419Y022006D01*
X012569Y022157D01*
X012494Y021846D02*
X012344Y021846D01*
X012268Y021771D01*
X012268Y021696D01*
X012344Y021546D01*
X012118Y021546D01*
X012118Y021846D01*
X012494Y021846D02*
X012569Y021771D01*
X012569Y021621D01*
X012494Y021546D01*
X012494Y021386D02*
X012193Y021386D01*
X012118Y021311D01*
X012118Y021086D01*
X012569Y021086D01*
X012569Y021311D01*
X012494Y021386D01*
X011575Y022894D02*
X011125Y022894D01*
X011125Y023194D01*
X011125Y023354D02*
X011350Y023354D01*
X011275Y023504D01*
X011275Y023579D01*
X011350Y023654D01*
X011500Y023654D01*
X011575Y023579D01*
X011575Y023429D01*
X011500Y023354D01*
X011350Y023044D02*
X011350Y022894D01*
X011125Y023354D02*
X011125Y023654D01*
X011125Y023815D02*
X011425Y023815D01*
X011575Y023965D01*
X011425Y024115D01*
X011125Y024115D01*
D18*
X013100Y021765D03*
X026100Y022935D03*
X026100Y017435D03*
X026100Y011935D03*
X026100Y006435D03*
X026600Y028935D03*
D19*
X016765Y012100D03*
X010265Y011600D03*
D20*
X009150Y013800D02*
X012050Y013800D01*
X012080Y013802D01*
X012110Y013807D01*
X012139Y013816D01*
X012166Y013829D01*
X012192Y013844D01*
X012216Y013863D01*
X012237Y013884D01*
X012256Y013908D01*
X012271Y013934D01*
X012284Y013961D01*
X012293Y013990D01*
X012298Y014020D01*
X012300Y014050D01*
X012300Y015150D01*
X012298Y015180D01*
X012293Y015210D01*
X012284Y015239D01*
X012271Y015266D01*
X012256Y015292D01*
X012237Y015316D01*
X012216Y015337D01*
X012192Y015356D01*
X012166Y015371D01*
X012139Y015384D01*
X012110Y015393D01*
X012080Y015398D01*
X012050Y015400D01*
X009150Y015400D01*
X009120Y015398D01*
X009090Y015393D01*
X009061Y015384D01*
X009034Y015371D01*
X009008Y015356D01*
X008984Y015337D01*
X008963Y015316D01*
X008944Y015292D01*
X008929Y015266D01*
X008916Y015239D01*
X008907Y015210D01*
X008902Y015180D01*
X008900Y015150D01*
X008900Y014050D01*
X008902Y014020D01*
X008907Y013990D01*
X008916Y013961D01*
X008929Y013934D01*
X008944Y013908D01*
X008963Y013884D01*
X008984Y013863D01*
X009008Y013844D01*
X009034Y013829D01*
X009061Y013816D01*
X009090Y013807D01*
X009120Y013802D01*
X009150Y013800D01*
X009300Y017800D02*
X009400Y017800D01*
X009400Y017900D01*
X009400Y018300D02*
X009400Y018400D01*
X009300Y018400D01*
X009300Y018800D02*
X009400Y018800D01*
X009400Y018900D01*
X009400Y019300D02*
X009400Y019400D01*
X009300Y019400D01*
X009300Y019800D02*
X009400Y019800D01*
X009400Y019900D01*
X009400Y020300D02*
X009400Y020400D01*
X009300Y020400D01*
X008900Y020400D02*
X008800Y020400D01*
X008800Y020300D01*
X008800Y019900D02*
X008800Y019800D01*
X008900Y019800D01*
X008900Y019400D02*
X008800Y019400D01*
X008800Y019300D01*
X008800Y018900D02*
X008800Y018800D01*
X008900Y018800D01*
X008900Y018400D02*
X008800Y018400D01*
X008800Y018300D01*
X008800Y017900D02*
X008800Y017800D01*
X008900Y017800D01*
X009800Y017800D02*
X009900Y017800D01*
X009800Y017800D02*
X009800Y017900D01*
X009800Y018300D02*
X009800Y018400D01*
X009900Y018400D01*
X009900Y018800D02*
X009800Y018800D01*
X009800Y018900D01*
X009800Y019300D02*
X009800Y019400D01*
X009900Y019400D01*
X009900Y019800D02*
X009800Y019800D01*
X009800Y019900D01*
X009800Y020300D02*
X009800Y020400D01*
X009900Y020400D01*
X010300Y020400D02*
X010400Y020400D01*
X010400Y020300D01*
X010400Y019900D02*
X010400Y019800D01*
X010300Y019800D01*
X010300Y019400D02*
X010400Y019400D01*
X010400Y019300D01*
X010400Y018900D02*
X010400Y018800D01*
X010300Y018800D01*
X010300Y018400D02*
X010400Y018400D01*
X010400Y018300D01*
X010400Y017900D02*
X010400Y017800D01*
X010300Y017800D01*
X010800Y017800D02*
X010800Y017900D01*
X010800Y017800D02*
X010900Y017800D01*
X011300Y017800D02*
X011400Y017800D01*
X011400Y017900D01*
X011400Y018300D02*
X011400Y018400D01*
X011300Y018400D01*
X011300Y018800D02*
X011400Y018800D01*
X011400Y018900D01*
X011400Y019300D02*
X011400Y019400D01*
X011300Y019400D01*
X011300Y019800D02*
X011400Y019800D01*
X011400Y019900D01*
X011400Y020300D02*
X011400Y020400D01*
X011300Y020400D01*
X010900Y020400D02*
X010800Y020400D01*
X010800Y020300D01*
X010800Y019900D02*
X010800Y019800D01*
X010900Y019800D01*
X010900Y019400D02*
X010800Y019400D01*
X010800Y019300D01*
X010800Y018900D02*
X010800Y018800D01*
X010900Y018800D01*
X010900Y018400D02*
X010800Y018400D01*
X010800Y018300D01*
X011800Y018300D02*
X011800Y018400D01*
X011900Y018400D01*
X011900Y018800D02*
X011800Y018800D01*
X011800Y018900D01*
X011800Y019300D02*
X011800Y019400D01*
X011900Y019400D01*
X011900Y019800D02*
X011800Y019800D01*
X011800Y019900D01*
X011800Y020300D02*
X011800Y020400D01*
X011900Y020400D01*
X012300Y020400D02*
X012400Y020400D01*
X012400Y020300D01*
X012400Y019900D02*
X012400Y019800D01*
X012300Y019800D01*
X012300Y019400D02*
X012400Y019400D01*
X012400Y019300D01*
X012400Y018900D02*
X012400Y018800D01*
X012300Y018800D01*
X012300Y018400D02*
X012400Y018400D01*
X012400Y018300D01*
X012400Y017900D02*
X012400Y017800D01*
X012300Y017800D01*
X011900Y017800D02*
X011800Y017800D01*
X011800Y017900D01*
X012800Y018800D02*
X012900Y018800D01*
X012800Y018800D02*
X012800Y018900D01*
X012800Y019300D02*
X012800Y019400D01*
X012900Y019400D01*
X012900Y019800D02*
X012800Y019800D01*
X012800Y019900D01*
X012800Y020300D02*
X012800Y020400D01*
X012900Y020400D01*
X013300Y020400D02*
X013400Y020400D01*
X013400Y020300D01*
X013400Y019900D02*
X013400Y019800D01*
X013300Y019800D01*
X013300Y019400D02*
X013400Y019400D01*
X013400Y019300D01*
X013400Y018900D02*
X013400Y018800D01*
X013300Y018800D01*
X010900Y021150D02*
X010900Y024050D01*
X010898Y024080D01*
X010893Y024110D01*
X010884Y024139D01*
X010871Y024166D01*
X010856Y024192D01*
X010837Y024216D01*
X010816Y024237D01*
X010792Y024256D01*
X010766Y024271D01*
X010739Y024284D01*
X010710Y024293D01*
X010680Y024298D01*
X010650Y024300D01*
X009550Y024300D01*
X009520Y024298D01*
X009490Y024293D01*
X009461Y024284D01*
X009434Y024271D01*
X009408Y024256D01*
X009384Y024237D01*
X009363Y024216D01*
X009344Y024192D01*
X009329Y024166D01*
X009316Y024139D01*
X009307Y024110D01*
X009302Y024080D01*
X009300Y024050D01*
X009300Y021150D01*
X009302Y021120D01*
X009307Y021090D01*
X009316Y021061D01*
X009329Y021034D01*
X009344Y021008D01*
X009363Y020984D01*
X009384Y020963D01*
X009408Y020944D01*
X009434Y020929D01*
X009461Y020916D01*
X009490Y020907D01*
X009520Y020902D01*
X009550Y020900D01*
X010650Y020900D01*
X010680Y020902D01*
X010710Y020907D01*
X010739Y020916D01*
X010766Y020929D01*
X010792Y020944D01*
X010816Y020963D01*
X010837Y020984D01*
X010856Y021008D01*
X010871Y021034D01*
X010884Y021061D01*
X010893Y021090D01*
X010898Y021120D01*
X010900Y021150D01*
X010900Y024800D02*
X010800Y024800D01*
X010800Y024900D01*
X010400Y024900D02*
X010400Y024800D01*
X010300Y024800D01*
X009900Y024800D02*
X009800Y024800D01*
X009800Y024900D01*
X009400Y024900D02*
X009400Y024800D01*
X009300Y024800D01*
X008900Y024800D02*
X008800Y024800D01*
X008800Y024900D01*
X008800Y025300D02*
X008800Y025400D01*
X008900Y025400D01*
X008900Y025800D02*
X008800Y025800D01*
X008800Y025900D01*
X008800Y026300D02*
X008800Y026400D01*
X008900Y026400D01*
X009300Y026400D02*
X009400Y026400D01*
X009400Y026300D01*
X009400Y025900D02*
X009400Y025800D01*
X009300Y025800D01*
X009300Y025400D02*
X009400Y025400D01*
X009400Y025300D01*
X009800Y025300D02*
X009800Y025400D01*
X009900Y025400D01*
X009900Y025800D02*
X009800Y025800D01*
X009800Y025900D01*
X009800Y026300D02*
X009800Y026400D01*
X009900Y026400D01*
X010300Y026400D02*
X010400Y026400D01*
X010400Y026300D01*
X010400Y025900D02*
X010400Y025800D01*
X010300Y025800D01*
X010300Y025400D02*
X010400Y025400D01*
X010400Y025300D01*
X010800Y025300D02*
X010800Y025400D01*
X010900Y025400D01*
X010900Y025800D02*
X010800Y025800D01*
X010800Y025900D01*
X010800Y026300D02*
X010800Y026400D01*
X010900Y026400D01*
X011300Y026400D02*
X011400Y026400D01*
X011400Y026300D01*
X011400Y025900D02*
X011400Y025800D01*
X011300Y025800D01*
X011300Y025400D02*
X011400Y025400D01*
X011400Y025300D01*
X011800Y025300D02*
X011800Y025400D01*
X011900Y025400D01*
X011900Y025800D02*
X011800Y025800D01*
X011800Y025900D01*
X011800Y026300D02*
X011800Y026400D01*
X011900Y026400D01*
X012300Y026400D02*
X012400Y026400D01*
X012400Y026300D01*
X012400Y025900D02*
X012400Y025800D01*
X012300Y025800D01*
X012300Y025400D02*
X012400Y025400D01*
X012400Y025300D01*
X012400Y024900D02*
X012400Y024800D01*
X012300Y024800D01*
X011900Y024800D02*
X011800Y024800D01*
X011800Y024900D01*
X011400Y024900D02*
X011400Y024800D01*
X011300Y024800D01*
X011300Y026800D02*
X011400Y026800D01*
X011400Y026900D01*
X011400Y027300D02*
X011400Y027400D01*
X011300Y027400D01*
X010900Y027400D02*
X010800Y027400D01*
X010800Y027300D01*
X010800Y026900D02*
X010800Y026800D01*
X010900Y026800D01*
X010400Y026800D02*
X010400Y026900D01*
X010400Y026800D02*
X010300Y026800D01*
X009900Y026800D02*
X009800Y026800D01*
X009800Y026900D01*
X009800Y027300D02*
X009800Y027400D01*
X009900Y027400D01*
X009900Y027800D02*
X009800Y027800D01*
X009800Y027900D01*
X009400Y027900D02*
X009400Y027800D01*
X009300Y027800D01*
X009300Y027400D02*
X009400Y027400D01*
X009400Y027300D01*
X009400Y026900D02*
X009400Y026800D01*
X009300Y026800D01*
X008900Y026800D02*
X008800Y026800D01*
X008800Y026900D01*
X008800Y027300D02*
X008800Y027400D01*
X008900Y027400D01*
X008900Y027800D02*
X008800Y027800D01*
X008800Y027900D01*
X008800Y028300D02*
X008800Y028400D01*
X008900Y028400D01*
X009300Y028400D02*
X009400Y028400D01*
X009400Y028300D01*
X009800Y028300D02*
X009800Y028400D01*
X009900Y028400D01*
X010300Y028400D02*
X010400Y028400D01*
X010400Y028300D01*
X010400Y027900D02*
X010400Y027800D01*
X010300Y027800D01*
X010300Y027400D02*
X010400Y027400D01*
X010400Y027300D01*
X013032Y028861D02*
X013245Y028861D01*
X013138Y028861D02*
X013138Y029502D01*
X013032Y029502D02*
X013245Y029502D01*
X013461Y029502D02*
X013888Y028861D01*
X013888Y029502D01*
X014106Y029502D02*
X014426Y029502D01*
X014533Y029395D01*
X014533Y029181D01*
X014426Y029075D01*
X014106Y029075D01*
X014106Y028861D02*
X014106Y029502D01*
X014750Y029502D02*
X014750Y028968D01*
X014857Y028861D01*
X015071Y028861D01*
X015177Y028968D01*
X015177Y029502D01*
X015395Y029502D02*
X015822Y029502D01*
X015608Y029502D02*
X015608Y028861D01*
X013461Y028861D02*
X013461Y029502D01*
X017550Y025100D02*
X018700Y025100D01*
X018800Y025000D01*
X018800Y021200D01*
X018700Y021100D01*
X017550Y021100D01*
X022300Y021150D02*
X022300Y024050D01*
X022302Y024080D01*
X022307Y024110D01*
X022316Y024139D01*
X022329Y024166D01*
X022344Y024192D01*
X022363Y024216D01*
X022384Y024237D01*
X022408Y024256D01*
X022434Y024271D01*
X022461Y024284D01*
X022490Y024293D01*
X022520Y024298D01*
X022550Y024300D01*
X023650Y024300D01*
X023680Y024298D01*
X023710Y024293D01*
X023739Y024284D01*
X023766Y024271D01*
X023792Y024256D01*
X023816Y024237D01*
X023837Y024216D01*
X023856Y024192D01*
X023871Y024166D01*
X023884Y024139D01*
X023893Y024110D01*
X023898Y024080D01*
X023900Y024050D01*
X023900Y021150D01*
X023898Y021120D01*
X023893Y021090D01*
X023884Y021061D01*
X023871Y021034D01*
X023856Y021008D01*
X023837Y020984D01*
X023816Y020963D01*
X023792Y020944D01*
X023766Y020929D01*
X023739Y020916D01*
X023710Y020907D01*
X023680Y020902D01*
X023650Y020900D01*
X022550Y020900D01*
X022520Y020902D01*
X022490Y020907D01*
X022461Y020916D01*
X022434Y020929D01*
X022408Y020944D01*
X022384Y020963D01*
X022363Y020984D01*
X022344Y021008D01*
X022329Y021034D01*
X022316Y021061D01*
X022307Y021090D01*
X022302Y021120D01*
X022300Y021150D01*
X023800Y020400D02*
X023800Y020300D01*
X023800Y020400D02*
X023900Y020400D01*
X024300Y020400D02*
X024400Y020400D01*
X024400Y020300D01*
X024400Y019900D02*
X024400Y019800D01*
X024300Y019800D01*
X024300Y019400D02*
X024400Y019400D01*
X024400Y019300D01*
X024400Y018900D02*
X024400Y018800D01*
X024300Y018800D01*
X023900Y018800D02*
X023800Y018800D01*
X023800Y018900D01*
X023650Y018800D02*
X022550Y018800D01*
X022520Y018798D01*
X022490Y018793D01*
X022461Y018784D01*
X022434Y018771D01*
X022408Y018756D01*
X022384Y018737D01*
X022363Y018716D01*
X022344Y018692D01*
X022329Y018666D01*
X022316Y018639D01*
X022307Y018610D01*
X022302Y018580D01*
X022300Y018550D01*
X022300Y015650D01*
X022302Y015620D01*
X022307Y015590D01*
X022316Y015561D01*
X022329Y015534D01*
X022344Y015508D01*
X022363Y015484D01*
X022384Y015463D01*
X022408Y015444D01*
X022434Y015429D01*
X022461Y015416D01*
X022490Y015407D01*
X022520Y015402D01*
X022550Y015400D01*
X023650Y015400D01*
X023680Y015402D01*
X023710Y015407D01*
X023739Y015416D01*
X023766Y015429D01*
X023792Y015444D01*
X023816Y015463D01*
X023837Y015484D01*
X023856Y015508D01*
X023871Y015534D01*
X023884Y015561D01*
X023893Y015590D01*
X023898Y015620D01*
X023900Y015650D01*
X023900Y018550D01*
X023898Y018580D01*
X023893Y018610D01*
X023884Y018639D01*
X023871Y018666D01*
X023856Y018692D01*
X023837Y018716D01*
X023816Y018737D01*
X023792Y018756D01*
X023766Y018771D01*
X023739Y018784D01*
X023710Y018793D01*
X023680Y018798D01*
X023650Y018800D01*
X023800Y019300D02*
X023800Y019400D01*
X023900Y019400D01*
X023900Y019800D02*
X023800Y019800D01*
X023800Y019900D01*
X024800Y019900D02*
X024800Y019800D01*
X024900Y019800D01*
X024900Y019400D02*
X024800Y019400D01*
X024800Y019300D01*
X024800Y018900D02*
X024800Y018800D01*
X024900Y018800D01*
X025300Y018800D02*
X025400Y018800D01*
X025400Y018900D01*
X025400Y019300D02*
X025400Y019400D01*
X025300Y019400D01*
X025300Y019800D02*
X025400Y019800D01*
X025400Y019900D01*
X025400Y020300D02*
X025400Y020400D01*
X025300Y020400D01*
X024900Y020400D02*
X024800Y020400D01*
X024800Y020300D01*
X025800Y020300D02*
X025800Y020400D01*
X025900Y020400D01*
X026300Y020400D02*
X026400Y020400D01*
X026400Y020300D01*
X026400Y019900D02*
X026400Y019800D01*
X026300Y019800D01*
X026300Y019400D02*
X026400Y019400D01*
X026400Y019300D01*
X026400Y018900D02*
X026400Y018800D01*
X026300Y018800D01*
X025900Y018800D02*
X025800Y018800D01*
X025800Y018900D01*
X025800Y019300D02*
X025800Y019400D01*
X025900Y019400D01*
X025900Y019800D02*
X025800Y019800D01*
X025800Y019900D01*
X026800Y019900D02*
X026800Y019800D01*
X026900Y019800D01*
X026900Y019400D02*
X026800Y019400D01*
X026800Y019300D01*
X026800Y018900D02*
X026800Y018800D01*
X026900Y018800D01*
X027300Y018800D02*
X027400Y018800D01*
X027400Y018900D01*
X027400Y019300D02*
X027400Y019400D01*
X027300Y019400D01*
X027300Y019800D02*
X027400Y019800D01*
X027400Y019900D01*
X027400Y020300D02*
X027400Y020400D01*
X027300Y020400D01*
X026900Y020400D02*
X026800Y020400D01*
X026800Y020300D01*
X026800Y014900D02*
X026800Y014800D01*
X026800Y014900D02*
X026900Y014900D01*
X027300Y014900D02*
X027400Y014900D01*
X027400Y014800D01*
X027400Y014400D02*
X027400Y014300D01*
X027300Y014300D01*
X027300Y013900D02*
X027400Y013900D01*
X027400Y013800D01*
X027400Y013400D02*
X027400Y013300D01*
X027300Y013300D01*
X026900Y013300D02*
X026800Y013300D01*
X026800Y013400D01*
X026400Y013400D02*
X026400Y013300D01*
X026300Y013300D01*
X025900Y013300D02*
X025800Y013300D01*
X025800Y013400D01*
X025400Y013400D02*
X025400Y013300D01*
X025300Y013300D01*
X024900Y013300D02*
X024800Y013300D01*
X024800Y013400D01*
X024400Y013400D02*
X024400Y013300D01*
X024300Y013300D01*
X023900Y013300D02*
X023800Y013300D01*
X023800Y013400D01*
X023650Y013300D02*
X022550Y013300D01*
X022520Y013298D01*
X022490Y013293D01*
X022461Y013284D01*
X022434Y013271D01*
X022408Y013256D01*
X022384Y013237D01*
X022363Y013216D01*
X022344Y013192D01*
X022329Y013166D01*
X022316Y013139D01*
X022307Y013110D01*
X022302Y013080D01*
X022300Y013050D01*
X022300Y010150D01*
X022302Y010120D01*
X022307Y010090D01*
X022316Y010061D01*
X022329Y010034D01*
X022344Y010008D01*
X022363Y009984D01*
X022384Y009963D01*
X022408Y009944D01*
X022434Y009929D01*
X022461Y009916D01*
X022490Y009907D01*
X022520Y009902D01*
X022550Y009900D01*
X023650Y009900D01*
X023680Y009902D01*
X023710Y009907D01*
X023739Y009916D01*
X023766Y009929D01*
X023792Y009944D01*
X023816Y009963D01*
X023837Y009984D01*
X023856Y010008D01*
X023871Y010034D01*
X023884Y010061D01*
X023893Y010090D01*
X023898Y010120D01*
X023900Y010150D01*
X023900Y013050D01*
X023898Y013080D01*
X023893Y013110D01*
X023884Y013139D01*
X023871Y013166D01*
X023856Y013192D01*
X023837Y013216D01*
X023816Y013237D01*
X023792Y013256D01*
X023766Y013271D01*
X023739Y013284D01*
X023710Y013293D01*
X023680Y013298D01*
X023650Y013300D01*
X023800Y013800D02*
X023800Y013900D01*
X023900Y013900D01*
X023900Y014300D02*
X023800Y014300D01*
X023800Y014400D01*
X023800Y014800D02*
X023800Y014900D01*
X023900Y014900D01*
X024300Y014900D02*
X024400Y014900D01*
X024400Y014800D01*
X024400Y014400D02*
X024400Y014300D01*
X024300Y014300D01*
X024300Y013900D02*
X024400Y013900D01*
X024400Y013800D01*
X024800Y013800D02*
X024800Y013900D01*
X024900Y013900D01*
X024900Y014300D02*
X024800Y014300D01*
X024800Y014400D01*
X024800Y014800D02*
X024800Y014900D01*
X024900Y014900D01*
X025300Y014900D02*
X025400Y014900D01*
X025400Y014800D01*
X025400Y014400D02*
X025400Y014300D01*
X025300Y014300D01*
X025300Y013900D02*
X025400Y013900D01*
X025400Y013800D01*
X025800Y013800D02*
X025800Y013900D01*
X025900Y013900D01*
X025900Y014300D02*
X025800Y014300D01*
X025800Y014400D01*
X025800Y014800D02*
X025800Y014900D01*
X025900Y014900D01*
X026300Y014900D02*
X026400Y014900D01*
X026400Y014800D01*
X026400Y014400D02*
X026400Y014300D01*
X026300Y014300D01*
X026300Y013900D02*
X026400Y013900D01*
X026400Y013800D01*
X026800Y013800D02*
X026800Y013900D01*
X026900Y013900D01*
X026900Y014300D02*
X026800Y014300D01*
X026800Y014400D01*
X026800Y009400D02*
X026800Y009300D01*
X026800Y009400D02*
X026900Y009400D01*
X027300Y009400D02*
X027400Y009400D01*
X027400Y009300D01*
X027400Y008900D02*
X027400Y008800D01*
X027300Y008800D01*
X027300Y008400D02*
X027400Y008400D01*
X027400Y008300D01*
X027400Y007900D02*
X027400Y007800D01*
X027300Y007800D01*
X026900Y007800D02*
X026800Y007800D01*
X026800Y007900D01*
X026400Y007900D02*
X026400Y007800D01*
X026300Y007800D01*
X025900Y007800D02*
X025800Y007800D01*
X025800Y007900D01*
X025400Y007900D02*
X025400Y007800D01*
X025300Y007800D01*
X024900Y007800D02*
X024800Y007800D01*
X024800Y007900D01*
X024400Y007900D02*
X024400Y007800D01*
X024300Y007800D01*
X023900Y007800D02*
X023800Y007800D01*
X023800Y007900D01*
X023650Y007800D02*
X022550Y007800D01*
X022520Y007798D01*
X022490Y007793D01*
X022461Y007784D01*
X022434Y007771D01*
X022408Y007756D01*
X022384Y007737D01*
X022363Y007716D01*
X022344Y007692D01*
X022329Y007666D01*
X022316Y007639D01*
X022307Y007610D01*
X022302Y007580D01*
X022300Y007550D01*
X022300Y004650D01*
X022302Y004620D01*
X022307Y004590D01*
X022316Y004561D01*
X022329Y004534D01*
X022344Y004508D01*
X022363Y004484D01*
X022384Y004463D01*
X022408Y004444D01*
X022434Y004429D01*
X022461Y004416D01*
X022490Y004407D01*
X022520Y004402D01*
X022550Y004400D01*
X023650Y004400D01*
X023680Y004402D01*
X023710Y004407D01*
X023739Y004416D01*
X023766Y004429D01*
X023792Y004444D01*
X023816Y004463D01*
X023837Y004484D01*
X023856Y004508D01*
X023871Y004534D01*
X023884Y004561D01*
X023893Y004590D01*
X023898Y004620D01*
X023900Y004650D01*
X023900Y007550D01*
X023898Y007580D01*
X023893Y007610D01*
X023884Y007639D01*
X023871Y007666D01*
X023856Y007692D01*
X023837Y007716D01*
X023816Y007737D01*
X023792Y007756D01*
X023766Y007771D01*
X023739Y007784D01*
X023710Y007793D01*
X023680Y007798D01*
X023650Y007800D01*
X023800Y008300D02*
X023800Y008400D01*
X023900Y008400D01*
X023900Y008800D02*
X023800Y008800D01*
X023800Y008900D01*
X024300Y008800D02*
X024400Y008800D01*
X024400Y008900D01*
X024800Y008900D02*
X024800Y008800D01*
X024900Y008800D01*
X024900Y008400D02*
X024800Y008400D01*
X024800Y008300D01*
X024400Y008300D02*
X024400Y008400D01*
X024300Y008400D01*
X024400Y009300D02*
X024400Y009400D01*
X024300Y009400D01*
X023900Y009400D02*
X023800Y009400D01*
X023800Y009300D01*
X024800Y009300D02*
X024800Y009400D01*
X024900Y009400D01*
X025300Y009400D02*
X025400Y009400D01*
X025400Y009300D01*
X025800Y009300D02*
X025800Y009400D01*
X025900Y009400D01*
X026300Y009400D02*
X026400Y009400D01*
X026400Y009300D01*
X026400Y008900D02*
X026400Y008800D01*
X026300Y008800D01*
X026300Y008400D02*
X026400Y008400D01*
X026400Y008300D01*
X026800Y008300D02*
X026800Y008400D01*
X026900Y008400D01*
X026900Y008800D02*
X026800Y008800D01*
X026800Y008900D01*
X025900Y008800D02*
X025800Y008800D01*
X025800Y008900D01*
X025400Y008900D02*
X025400Y008800D01*
X025300Y008800D01*
X025300Y008400D02*
X025400Y008400D01*
X025400Y008300D01*
X025800Y008300D02*
X025800Y008400D01*
X025900Y008400D01*
X032446Y008430D02*
X032446Y009071D01*
X032660Y008857D01*
X032873Y009071D01*
X032873Y008430D01*
X033091Y008323D02*
X033518Y008323D01*
X033735Y008430D02*
X033735Y009071D01*
X034056Y009071D01*
X034162Y008964D01*
X034162Y008750D01*
X034056Y008644D01*
X033735Y008644D01*
X033949Y008644D02*
X034162Y008430D01*
X033518Y013823D02*
X033091Y013823D01*
X032873Y013930D02*
X032873Y014571D01*
X032660Y014357D01*
X032446Y014571D01*
X032446Y013930D01*
X033735Y014464D02*
X033949Y014250D01*
X033949Y013930D01*
X033949Y014250D02*
X034162Y014464D01*
X034162Y014571D01*
X033735Y014571D02*
X033735Y014464D01*
X033373Y019323D02*
X032946Y019323D01*
X032729Y019430D02*
X032729Y020071D01*
X032515Y019857D01*
X032302Y020071D01*
X032302Y019430D01*
X033591Y019430D02*
X033911Y019430D01*
X034018Y019537D01*
X034018Y019964D01*
X033911Y020071D01*
X033591Y020071D01*
X033591Y019430D01*
X034235Y019537D02*
X034342Y019430D01*
X034556Y019430D01*
X034662Y019537D01*
X034235Y019537D02*
X034235Y019964D01*
X034342Y020071D01*
X034556Y020071D01*
X034662Y019964D01*
X033518Y024823D02*
X033091Y024823D01*
X032873Y024930D02*
X032873Y025571D01*
X032660Y025357D01*
X032446Y025571D01*
X032446Y024930D01*
X033735Y024930D02*
X034162Y025571D01*
X033735Y025571D02*
X034162Y024930D01*
X024900Y026150D02*
X024900Y029050D01*
X024898Y029080D01*
X024893Y029110D01*
X024884Y029139D01*
X024871Y029166D01*
X024856Y029192D01*
X024837Y029216D01*
X024816Y029237D01*
X024792Y029256D01*
X024766Y029271D01*
X024739Y029284D01*
X024710Y029293D01*
X024680Y029298D01*
X024650Y029300D01*
X023550Y029300D01*
X023520Y029298D01*
X023490Y029293D01*
X023461Y029284D01*
X023434Y029271D01*
X023408Y029256D01*
X023384Y029237D01*
X023363Y029216D01*
X023344Y029192D01*
X023329Y029166D01*
X023316Y029139D01*
X023307Y029110D01*
X023302Y029080D01*
X023300Y029050D01*
X023300Y026150D01*
X023302Y026120D01*
X023307Y026090D01*
X023316Y026061D01*
X023329Y026034D01*
X023344Y026008D01*
X023363Y025984D01*
X023384Y025963D01*
X023408Y025944D01*
X023434Y025929D01*
X023461Y025916D01*
X023490Y025907D01*
X023520Y025902D01*
X023550Y025900D01*
X024650Y025900D01*
X024680Y025902D01*
X024710Y025907D01*
X024739Y025916D01*
X024766Y025929D01*
X024792Y025944D01*
X024816Y025963D01*
X024837Y025984D01*
X024856Y026008D01*
X024871Y026034D01*
X024884Y026061D01*
X024893Y026090D01*
X024898Y026120D01*
X024900Y026150D01*
X018550Y015400D02*
X015650Y015400D01*
X015620Y015398D01*
X015590Y015393D01*
X015561Y015384D01*
X015534Y015371D01*
X015508Y015356D01*
X015484Y015337D01*
X015463Y015316D01*
X015444Y015292D01*
X015429Y015266D01*
X015416Y015239D01*
X015407Y015210D01*
X015402Y015180D01*
X015400Y015150D01*
X015400Y014050D01*
X015402Y014020D01*
X015407Y013990D01*
X015416Y013961D01*
X015429Y013934D01*
X015444Y013908D01*
X015463Y013884D01*
X015484Y013863D01*
X015508Y013844D01*
X015534Y013829D01*
X015561Y013816D01*
X015590Y013807D01*
X015620Y013802D01*
X015650Y013800D01*
X018550Y013800D01*
X018580Y013802D01*
X018610Y013807D01*
X018639Y013816D01*
X018666Y013829D01*
X018692Y013844D01*
X018716Y013863D01*
X018737Y013884D01*
X018756Y013908D01*
X018771Y013934D01*
X018784Y013961D01*
X018793Y013990D01*
X018798Y014020D01*
X018800Y014050D01*
X018800Y015150D01*
X018798Y015180D01*
X018793Y015210D01*
X018784Y015239D01*
X018771Y015266D01*
X018756Y015292D01*
X018737Y015316D01*
X018716Y015337D01*
X018692Y015356D01*
X018666Y015371D01*
X018639Y015384D01*
X018610Y015393D01*
X018580Y015398D01*
X018550Y015400D01*
X014770Y003912D02*
X014770Y003485D01*
X014343Y003912D01*
X014236Y003912D01*
X014129Y003806D01*
X014129Y003592D01*
X014236Y003485D01*
X014129Y003268D02*
X014556Y003268D01*
X014770Y003054D01*
X014556Y002841D01*
X014129Y002841D01*
X014236Y002623D02*
X014129Y002517D01*
X014129Y002303D01*
X014236Y002196D01*
X014129Y001765D02*
X014770Y001765D01*
X014770Y001552D02*
X014770Y001979D01*
X014770Y002196D02*
X014343Y002623D01*
X014236Y002623D01*
X014770Y002623D02*
X014770Y002196D01*
X014343Y001552D02*
X014129Y001765D01*
X008270Y001765D02*
X007629Y001765D01*
X007843Y001552D01*
X008270Y001552D02*
X008270Y001979D01*
X008270Y002196D02*
X007843Y002623D01*
X007736Y002623D01*
X007629Y002517D01*
X007629Y002303D01*
X007736Y002196D01*
X008270Y002196D02*
X008270Y002623D01*
X008056Y002841D02*
X008270Y003054D01*
X008056Y003268D01*
X007629Y003268D01*
X007843Y003485D02*
X007629Y003699D01*
X008270Y003699D01*
X008270Y003912D02*
X008270Y003485D01*
X008056Y002841D02*
X007629Y002841D01*
X005600Y035100D02*
X005602Y035163D01*
X005608Y035225D01*
X005618Y035287D01*
X005631Y035349D01*
X005649Y035409D01*
X005670Y035468D01*
X005695Y035526D01*
X005724Y035582D01*
X005756Y035636D01*
X005791Y035688D01*
X005829Y035737D01*
X005871Y035785D01*
X005915Y035829D01*
X005963Y035871D01*
X006012Y035909D01*
X006064Y035944D01*
X006118Y035976D01*
X006174Y036005D01*
X006232Y036030D01*
X006291Y036051D01*
X006351Y036069D01*
X006413Y036082D01*
X006475Y036092D01*
X006537Y036098D01*
X006600Y036100D01*
X006663Y036098D01*
X006725Y036092D01*
X006787Y036082D01*
X006849Y036069D01*
X006909Y036051D01*
X006968Y036030D01*
X007026Y036005D01*
X007082Y035976D01*
X007136Y035944D01*
X007188Y035909D01*
X007237Y035871D01*
X007285Y035829D01*
X007329Y035785D01*
X007371Y035737D01*
X007409Y035688D01*
X007444Y035636D01*
X007476Y035582D01*
X007505Y035526D01*
X007530Y035468D01*
X007551Y035409D01*
X007569Y035349D01*
X007582Y035287D01*
X007592Y035225D01*
X007598Y035163D01*
X007600Y035100D01*
X007598Y035037D01*
X007592Y034975D01*
X007582Y034913D01*
X007569Y034851D01*
X007551Y034791D01*
X007530Y034732D01*
X007505Y034674D01*
X007476Y034618D01*
X007444Y034564D01*
X007409Y034512D01*
X007371Y034463D01*
X007329Y034415D01*
X007285Y034371D01*
X007237Y034329D01*
X007188Y034291D01*
X007136Y034256D01*
X007082Y034224D01*
X007026Y034195D01*
X006968Y034170D01*
X006909Y034149D01*
X006849Y034131D01*
X006787Y034118D01*
X006725Y034108D01*
X006663Y034102D01*
X006600Y034100D01*
X006537Y034102D01*
X006475Y034108D01*
X006413Y034118D01*
X006351Y034131D01*
X006291Y034149D01*
X006232Y034170D01*
X006174Y034195D01*
X006118Y034224D01*
X006064Y034256D01*
X006012Y034291D01*
X005963Y034329D01*
X005915Y034371D01*
X005871Y034415D01*
X005829Y034463D01*
X005791Y034512D01*
X005756Y034564D01*
X005724Y034618D01*
X005695Y034674D01*
X005670Y034732D01*
X005649Y034791D01*
X005631Y034851D01*
X005618Y034913D01*
X005608Y034975D01*
X005602Y035037D01*
X005600Y035100D01*
X011100Y035100D02*
X011102Y035163D01*
X011108Y035225D01*
X011118Y035287D01*
X011131Y035349D01*
X011149Y035409D01*
X011170Y035468D01*
X011195Y035526D01*
X011224Y035582D01*
X011256Y035636D01*
X011291Y035688D01*
X011329Y035737D01*
X011371Y035785D01*
X011415Y035829D01*
X011463Y035871D01*
X011512Y035909D01*
X011564Y035944D01*
X011618Y035976D01*
X011674Y036005D01*
X011732Y036030D01*
X011791Y036051D01*
X011851Y036069D01*
X011913Y036082D01*
X011975Y036092D01*
X012037Y036098D01*
X012100Y036100D01*
X012163Y036098D01*
X012225Y036092D01*
X012287Y036082D01*
X012349Y036069D01*
X012409Y036051D01*
X012468Y036030D01*
X012526Y036005D01*
X012582Y035976D01*
X012636Y035944D01*
X012688Y035909D01*
X012737Y035871D01*
X012785Y035829D01*
X012829Y035785D01*
X012871Y035737D01*
X012909Y035688D01*
X012944Y035636D01*
X012976Y035582D01*
X013005Y035526D01*
X013030Y035468D01*
X013051Y035409D01*
X013069Y035349D01*
X013082Y035287D01*
X013092Y035225D01*
X013098Y035163D01*
X013100Y035100D01*
X013098Y035037D01*
X013092Y034975D01*
X013082Y034913D01*
X013069Y034851D01*
X013051Y034791D01*
X013030Y034732D01*
X013005Y034674D01*
X012976Y034618D01*
X012944Y034564D01*
X012909Y034512D01*
X012871Y034463D01*
X012829Y034415D01*
X012785Y034371D01*
X012737Y034329D01*
X012688Y034291D01*
X012636Y034256D01*
X012582Y034224D01*
X012526Y034195D01*
X012468Y034170D01*
X012409Y034149D01*
X012349Y034131D01*
X012287Y034118D01*
X012225Y034108D01*
X012163Y034102D01*
X012100Y034100D01*
X012037Y034102D01*
X011975Y034108D01*
X011913Y034118D01*
X011851Y034131D01*
X011791Y034149D01*
X011732Y034170D01*
X011674Y034195D01*
X011618Y034224D01*
X011564Y034256D01*
X011512Y034291D01*
X011463Y034329D01*
X011415Y034371D01*
X011371Y034415D01*
X011329Y034463D01*
X011291Y034512D01*
X011256Y034564D01*
X011224Y034618D01*
X011195Y034674D01*
X011170Y034732D01*
X011149Y034791D01*
X011131Y034851D01*
X011118Y034913D01*
X011108Y034975D01*
X011102Y035037D01*
X011100Y035100D01*
D21*
X018560Y021280D03*
D22*
X017225Y023100D03*
D23*
X017475Y024825D03*
X017475Y021375D03*
D24*
X017475Y022600D03*
X017475Y023600D03*
D25*
X001537Y021787D02*
X000787Y021975D01*
X000787Y021600D01*
X001537Y021787D01*
X001529Y021785D02*
X000787Y021785D01*
X000787Y021767D02*
X001455Y021767D01*
X001472Y021804D02*
X000787Y021804D01*
X000787Y021822D02*
X001398Y021822D01*
X001381Y021748D02*
X000787Y021748D01*
X000787Y021730D02*
X001306Y021730D01*
X001232Y021711D02*
X000787Y021711D01*
X000787Y021693D02*
X001158Y021693D01*
X001084Y021674D02*
X000787Y021674D01*
X000787Y021656D02*
X001010Y021656D01*
X000936Y021637D02*
X000787Y021637D01*
X000787Y021619D02*
X000862Y021619D01*
X000788Y021600D02*
X000787Y021600D01*
X000787Y021841D02*
X001324Y021841D01*
X001250Y021859D02*
X000787Y021859D01*
X000787Y021878D02*
X001176Y021878D01*
X001102Y021896D02*
X000787Y021896D01*
X000787Y021915D02*
X001028Y021915D01*
X000954Y021933D02*
X000787Y021933D01*
X000787Y021952D02*
X000880Y021952D01*
X000806Y021970D02*
X000787Y021970D01*
X000787Y027600D02*
X000787Y027975D01*
X001537Y027787D01*
X000787Y027600D01*
X000787Y027613D02*
X000839Y027613D01*
X000787Y027631D02*
X000913Y027631D01*
X000987Y027650D02*
X000787Y027650D01*
X000787Y027668D02*
X001061Y027668D01*
X001135Y027687D02*
X000787Y027687D01*
X000787Y027705D02*
X001209Y027705D01*
X001283Y027724D02*
X000787Y027724D01*
X000787Y027742D02*
X001357Y027742D01*
X001431Y027761D02*
X000787Y027761D01*
X000787Y027779D02*
X001505Y027779D01*
X001496Y027798D02*
X000787Y027798D01*
X000787Y027816D02*
X001422Y027816D01*
X001348Y027835D02*
X000787Y027835D01*
X000787Y027853D02*
X001274Y027853D01*
X001200Y027872D02*
X000787Y027872D01*
X000787Y027890D02*
X001126Y027890D01*
X001052Y027909D02*
X000787Y027909D01*
X000787Y027927D02*
X000978Y027927D01*
X000904Y027946D02*
X000787Y027946D01*
X000787Y027964D02*
X000830Y027964D01*
X000787Y015975D02*
X000787Y015600D01*
X001537Y015787D01*
X000787Y015975D01*
X000787Y015958D02*
X000857Y015958D01*
X000787Y015939D02*
X000931Y015939D01*
X001005Y015921D02*
X000787Y015921D01*
X000787Y015902D02*
X001079Y015902D01*
X001153Y015884D02*
X000787Y015884D01*
X000787Y015865D02*
X001227Y015865D01*
X001301Y015847D02*
X000787Y015847D01*
X000787Y015828D02*
X001375Y015828D01*
X001449Y015810D02*
X000787Y015810D01*
X000787Y015791D02*
X001523Y015791D01*
X001478Y015773D02*
X000787Y015773D01*
X000787Y015754D02*
X001404Y015754D01*
X001330Y015736D02*
X000787Y015736D01*
X000787Y015717D02*
X001256Y015717D01*
X001182Y015699D02*
X000787Y015699D01*
X000787Y015680D02*
X001108Y015680D01*
X001034Y015662D02*
X000787Y015662D01*
X000787Y015643D02*
X000960Y015643D01*
X000886Y015625D02*
X000787Y015625D01*
X000787Y015606D02*
X000812Y015606D01*
X000787Y009975D02*
X000787Y009600D01*
X001537Y009787D01*
X000787Y009975D01*
X000787Y009964D02*
X000833Y009964D01*
X000787Y009945D02*
X000907Y009945D01*
X000981Y009927D02*
X000787Y009927D01*
X000787Y009908D02*
X001055Y009908D01*
X001129Y009890D02*
X000787Y009890D01*
X000787Y009871D02*
X001203Y009871D01*
X001277Y009853D02*
X000787Y009853D01*
X000787Y009834D02*
X001351Y009834D01*
X001425Y009816D02*
X000787Y009816D01*
X000787Y009797D02*
X001499Y009797D01*
X001502Y009779D02*
X000787Y009779D01*
X000787Y009760D02*
X001428Y009760D01*
X001354Y009742D02*
X000787Y009742D01*
X000787Y009723D02*
X001280Y009723D01*
X001206Y009705D02*
X000787Y009705D01*
X000787Y009686D02*
X001132Y009686D01*
X001058Y009668D02*
X000787Y009668D01*
X000787Y009649D02*
X000984Y009649D01*
X000910Y009631D02*
X000787Y009631D01*
X000787Y009612D02*
X000836Y009612D01*
X035163Y029913D02*
X035913Y029725D01*
X035913Y030100D01*
X035163Y029913D01*
X035185Y029907D02*
X035913Y029907D01*
X035913Y029925D02*
X035214Y029925D01*
X035259Y029888D02*
X035913Y029888D01*
X035913Y029870D02*
X035333Y029870D01*
X035407Y029851D02*
X035913Y029851D01*
X035913Y029833D02*
X035481Y029833D01*
X035555Y029814D02*
X035913Y029814D01*
X035913Y029796D02*
X035629Y029796D01*
X035703Y029777D02*
X035913Y029777D01*
X035913Y029759D02*
X035777Y029759D01*
X035851Y029740D02*
X035913Y029740D01*
X035913Y029944D02*
X035288Y029944D01*
X035362Y029962D02*
X035913Y029962D01*
X035913Y029981D02*
X035436Y029981D01*
X035510Y029999D02*
X035913Y029999D01*
X035913Y030018D02*
X035584Y030018D01*
X035658Y030036D02*
X035913Y030036D01*
X035913Y030055D02*
X035732Y030055D01*
X035806Y030073D02*
X035913Y030073D01*
X035913Y030092D02*
X035880Y030092D01*
D26*
X031900Y032200D02*
X031900Y032600D01*
X032100Y032600D01*
X032100Y034600D01*
X031900Y034600D01*
X031900Y034500D01*
X030700Y034500D01*
X030700Y034600D01*
X030700Y035000D01*
X031900Y035000D01*
X031900Y034600D01*
X032000Y034800D02*
X032300Y034800D01*
X032300Y034300D01*
X030700Y034600D02*
X030500Y034600D01*
X025700Y034600D01*
X025500Y034600D01*
X025500Y034500D01*
X024300Y034500D01*
X024300Y034600D01*
X024100Y034600D01*
X024100Y032600D01*
X024300Y032600D01*
X024300Y032700D01*
X025500Y032700D01*
X025500Y032600D01*
X025500Y032200D01*
X024300Y032200D01*
X024300Y032600D01*
X024200Y032400D02*
X023900Y032400D01*
X023900Y032900D01*
X025500Y032600D02*
X025700Y032600D01*
X030500Y032600D01*
X030700Y032600D01*
X030700Y032700D01*
X031900Y032700D01*
X031900Y032600D01*
X031900Y032200D02*
X030700Y032200D01*
X030700Y032600D01*
X030500Y032600D02*
X030500Y034600D01*
X025700Y034600D02*
X025700Y032600D01*
X025500Y034600D02*
X025500Y035000D01*
X024300Y035000D01*
X024300Y034600D01*
M02*
