%
M48
M72
T01C0.0315
T02C0.0320
T03C0.0360
T04C0.0400
T05C0.0430
T06C0.0551
T07C0.0560
T08C0.0709
T09C0.0866
T10C0.1181
%
T01
X9100Y29600
T02
X7100Y35100
X6100Y35100
X11600Y35100
X12600Y35100
T03
X10100Y28100
X10100Y27100
X10100Y26100
X10100Y25100
X9100Y25100
X9100Y26100
X9100Y27100
X9100Y28100
X11100Y27100
X11100Y26100
X11100Y25100
X12100Y25100
X12100Y26100
X12100Y20100
X13100Y20100
X13100Y19100
X12100Y19100
X12100Y18100
X11100Y18100
X11100Y19100
X11100Y20100
X10100Y20100
X10100Y19100
X10100Y18100
X9100Y18100
X9100Y19100
X9100Y20100
X24100Y20100
X24100Y19100
X25100Y19100
X25100Y20100
X26100Y20100
X26100Y19100
X27100Y19100
X27100Y20100
X27100Y14600
X27100Y13600
X26100Y13600
X26100Y14600
X25100Y14600
X25100Y13600
X24100Y13600
X24100Y14600
X24100Y9100
X24100Y8100
X25100Y8100
X25100Y9100
X26100Y9100
X26100Y8100
X27100Y8100
X27100Y9100
T04
X23100Y10600
X23100Y12600
X23100Y16100
X23100Y18100
X23100Y21600
X23100Y23600
X24100Y26600
X24100Y28600
X18100Y24100
X18100Y23100
X18100Y22100
X18100Y14600
X16100Y14600
X11600Y14600
X9600Y14600
X10100Y21600
X10100Y23600
X23100Y7100
X23100Y5100
T05
X6100Y10600
X6100Y11600
X6100Y16600
X6100Y17600
X6100Y22600
X6100Y23600
X6100Y28600
X6100Y29600
X30600Y29100
X30600Y28100
T06
X33350Y23683
X33350Y21517
X33350Y18183
X33350Y16017
X33350Y12683
X33350Y10517
X33350Y7183
X33350Y5017
X18183Y3100
X16017Y3100
X11683Y3100
X9517Y3100
T07
X25100Y33600
X31100Y33600
T08
X20074Y29600
X20074Y28348
X17126Y28348
X17126Y29600
T09
X2100Y2100
X34600Y2100
X34600Y35100
X2100Y35100
T10
X15256Y34769
X21944Y34769
X31500Y21698
X35200Y21698
X35200Y16198
X31500Y16198
X31500Y10698
X35200Y10698
X35200Y5198
X31500Y5198
X18002Y4950
X18002Y1250
X11502Y1250
X11502Y4950
M30
