G75*
%MOIN*%
%OFA0B0*%
%FSLAX24Y24*%
%IPPOS*%
%LPD*%
%AMOC8*
5,1,8,0,0,1.08239X$1,22.5*
%
%ADD10R,0.0709X0.0630*%
%ADD11R,0.0394X0.1161*%
%ADD12R,0.0630X0.0709*%
%ADD13R,0.1161X0.0394*%
%ADD14R,0.0669X0.0709*%
%ADD15R,0.0709X0.0669*%
%ADD16C,0.0600*%
%ADD17OC8,0.0520*%
%ADD18R,0.0630X0.0710*%
%ADD19R,0.0827X0.0827*%
%ADD20C,0.0645*%
%ADD21R,0.0900X0.0900*%
%ADD22C,0.1181*%
%ADD23C,0.1581*%
%ADD24OC8,0.0630*%
%ADD25C,0.1000*%
%ADD26C,0.0760*%
%ADD27R,0.0560X0.0560*%
%ADD28C,0.0500*%
%ADD29C,0.0100*%
%ADD30C,0.2000*%
%ADD31C,0.1266*%
D10*
X015100Y020049D03*
X015100Y021151D03*
X015100Y023049D03*
X015100Y024151D03*
X028600Y028049D03*
X028600Y029151D03*
D11*
X028600Y023545D03*
X028600Y021655D03*
X028600Y018045D03*
X028600Y016155D03*
X028600Y012545D03*
X028600Y010655D03*
X028600Y007045D03*
X028600Y005155D03*
D12*
X011151Y009100D03*
X010049Y009100D03*
D13*
X016155Y009600D03*
X018045Y009600D03*
D14*
X026100Y010793D03*
X026100Y012407D03*
X026100Y016293D03*
X026100Y017907D03*
X026100Y021793D03*
X026100Y023407D03*
X026600Y027793D03*
X026600Y029407D03*
X013100Y022907D03*
X013100Y021293D03*
X026100Y006907D03*
X026100Y005293D03*
D15*
X017907Y012100D03*
X016293Y012100D03*
X011407Y011600D03*
X009793Y011600D03*
D16*
X009600Y014300D02*
X009600Y014900D01*
X011600Y014900D02*
X011600Y014300D01*
X016100Y014300D02*
X016100Y014900D01*
X018100Y014900D02*
X018100Y014300D01*
X022800Y012600D02*
X023400Y012600D01*
X023400Y010600D02*
X022800Y010600D01*
X022800Y007100D02*
X023400Y007100D01*
X023400Y005100D02*
X022800Y005100D01*
X022800Y016100D02*
X023400Y016100D01*
X023400Y018100D02*
X022800Y018100D01*
X022800Y021600D02*
X023400Y021600D01*
X023400Y023600D02*
X022800Y023600D01*
X023800Y026600D02*
X024400Y026600D01*
X024400Y028600D02*
X023800Y028600D01*
X018400Y024100D02*
X017800Y024100D01*
X017800Y023100D02*
X018400Y023100D01*
X018400Y022100D02*
X017800Y022100D01*
X010400Y021600D02*
X009800Y021600D01*
X009800Y023600D02*
X010400Y023600D01*
D17*
X011600Y035100D03*
X012600Y035100D03*
X007100Y035100D03*
X006100Y035100D03*
D18*
X007040Y031600D03*
X008160Y031600D03*
X010540Y031600D03*
X011660Y031600D03*
D19*
X033350Y023683D03*
X033350Y021517D03*
X033350Y018183D03*
X033350Y016017D03*
X033350Y012683D03*
X033350Y010517D03*
X033350Y007183D03*
X033350Y005017D03*
X018183Y003100D03*
X016017Y003100D03*
X011683Y003100D03*
X009517Y003100D03*
D20*
X006423Y010600D02*
X005778Y010600D01*
X005778Y011600D02*
X006423Y011600D01*
X006423Y016600D02*
X005778Y016600D01*
X005778Y017600D02*
X006423Y017600D01*
X006423Y022600D02*
X005778Y022600D01*
X005778Y023600D02*
X006423Y023600D01*
X006423Y028600D02*
X005778Y028600D01*
X005778Y029600D02*
X006423Y029600D01*
X030278Y029100D02*
X030923Y029100D01*
X030923Y028100D02*
X030278Y028100D01*
D21*
X031100Y033600D03*
X025100Y033600D03*
D22*
X020074Y029600D03*
X020074Y028348D03*
X017126Y028348D03*
X017126Y029600D03*
D23*
X015256Y034769D03*
X021944Y034769D03*
D24*
X012100Y026100D03*
X012100Y025100D03*
X011100Y025100D03*
X011100Y026100D03*
X011100Y027100D03*
X010100Y027100D03*
X010100Y026100D03*
X010100Y025100D03*
X009100Y025100D03*
X009100Y026100D03*
X009100Y027100D03*
X009100Y028100D03*
X010100Y028100D03*
X010100Y020100D03*
X010100Y019100D03*
X010100Y018100D03*
X009100Y018100D03*
X009100Y019100D03*
X009100Y020100D03*
X011100Y020100D03*
X011100Y019100D03*
X011100Y018100D03*
X012100Y018100D03*
X012100Y019100D03*
X013100Y019100D03*
X013100Y020100D03*
X012100Y020100D03*
X024100Y020100D03*
X024100Y019100D03*
X025100Y019100D03*
X025100Y020100D03*
X026100Y020100D03*
X026100Y019100D03*
X027100Y019100D03*
X027100Y020100D03*
X027100Y014600D03*
X027100Y013600D03*
X026100Y013600D03*
X026100Y014600D03*
X025100Y014600D03*
X025100Y013600D03*
X024100Y013600D03*
X024100Y014600D03*
X024100Y009100D03*
X024100Y008100D03*
X025100Y008100D03*
X025100Y009100D03*
X026100Y009100D03*
X026100Y008100D03*
X027100Y008100D03*
X027100Y009100D03*
D25*
X028600Y010600D02*
X030100Y009100D01*
X032600Y009100D01*
X033350Y009850D01*
X033350Y010517D01*
X033100Y012545D02*
X033350Y012683D01*
X033100Y012545D02*
X028600Y012545D01*
X028600Y012407D02*
X026100Y012407D01*
X026100Y012600D02*
X023100Y012600D01*
X023100Y010600D02*
X022100Y010600D01*
X021600Y010600D01*
X020600Y011100D02*
X020600Y009600D01*
X021600Y008600D01*
X021600Y006600D01*
X023100Y005100D01*
X023100Y007100D02*
X026100Y007100D01*
X026100Y006907D02*
X028600Y006907D01*
X028600Y007045D02*
X033090Y007045D01*
X033350Y005017D02*
X033350Y004350D01*
X032600Y003600D01*
X030155Y003600D01*
X028600Y005155D01*
X028462Y005293D02*
X026100Y005293D01*
X028600Y010655D02*
X028600Y010793D01*
X026100Y010793D01*
X030100Y014600D02*
X032600Y014600D01*
X033350Y015350D01*
X033350Y016017D01*
X033100Y018045D02*
X033350Y018183D01*
X033100Y018045D02*
X028600Y018045D01*
X028600Y017907D02*
X026100Y017907D01*
X026100Y018100D01*
X023100Y018100D01*
X023100Y016100D02*
X021600Y016100D01*
X026100Y016293D02*
X028600Y016293D01*
X028738Y015962D02*
X030100Y014600D01*
X030100Y020100D02*
X032600Y020100D01*
X033350Y020850D01*
X033350Y021517D01*
X033100Y023545D02*
X033350Y023683D01*
X033100Y023545D02*
X028600Y023545D01*
X028600Y023407D02*
X026100Y023407D01*
X026100Y023600D02*
X023100Y023600D01*
X023100Y021600D02*
X021600Y021600D01*
X026100Y021793D02*
X028600Y021793D01*
X028600Y021600D02*
X030100Y020100D01*
D26*
X028600Y021600D02*
X028600Y021655D01*
X028600Y021793D01*
X028600Y023407D02*
X028600Y023545D01*
X026100Y023600D02*
X026100Y023407D01*
X024100Y026600D02*
X022100Y026600D01*
X021600Y026600D01*
X024100Y028600D02*
X024907Y029407D01*
X026600Y029407D01*
X028344Y029407D01*
X028600Y029151D01*
X030549Y029151D01*
X030600Y029100D01*
X030600Y028100D02*
X028651Y028100D01*
X028600Y028049D01*
X026856Y028049D01*
X026600Y027793D01*
X022100Y031600D02*
X021600Y031600D01*
X018100Y024100D02*
X015151Y024100D01*
X015100Y024151D01*
X010651Y024151D01*
X010100Y023600D01*
X010100Y021600D02*
X007600Y021600D01*
X007600Y016600D01*
X006100Y016600D01*
X007600Y016600D02*
X007600Y011100D01*
X007100Y010600D01*
X006100Y010600D01*
X009600Y011793D02*
X009793Y011600D01*
X009793Y009356D01*
X010049Y009100D01*
X009600Y008651D01*
X009600Y003100D01*
X009517Y003100D01*
X011683Y003100D02*
X013100Y004517D01*
X013100Y008100D01*
X012100Y009100D01*
X011151Y009100D01*
X011151Y011344D01*
X011407Y011600D01*
X009600Y011793D02*
X009600Y014600D01*
X011600Y014600D02*
X011600Y016100D01*
X013100Y017600D01*
X020600Y017600D01*
X020600Y016100D02*
X021100Y016100D01*
X021100Y014600D01*
X018100Y014600D01*
X016293Y014407D02*
X016293Y012100D01*
X016155Y012100D01*
X016155Y009600D01*
X016017Y009600D01*
X016017Y003100D01*
X018183Y003100D02*
X019600Y004517D01*
X019600Y008045D01*
X018045Y009600D01*
X018100Y009600D01*
X018100Y012100D01*
X016293Y014407D02*
X016100Y014600D01*
X020600Y010600D02*
X022100Y010600D01*
X026100Y012407D02*
X026100Y012600D01*
X028600Y012545D02*
X028600Y012407D01*
X028600Y010655D02*
X028600Y010600D01*
X026100Y007100D02*
X026100Y006907D01*
X028462Y005293D02*
X028600Y005155D01*
X028600Y006907D02*
X028600Y007045D01*
X033090Y007045D02*
X033100Y007045D01*
X033100Y007100D01*
X028738Y015962D02*
X028738Y016017D01*
X028600Y016155D01*
X028600Y016293D01*
X028600Y017907D02*
X028600Y018045D01*
X021600Y016100D02*
X021100Y016100D01*
X017100Y020100D02*
X015151Y020100D01*
X015100Y020049D01*
X015100Y021151D02*
X015100Y023049D01*
X018049Y023049D01*
X018100Y023100D01*
X018100Y022100D02*
X020600Y022100D01*
X021100Y021600D01*
X021600Y021600D01*
X018100Y021100D02*
X017100Y020100D01*
X018100Y021100D02*
X018100Y022100D01*
X015100Y023049D02*
X014958Y022907D01*
X013100Y022907D01*
X013100Y021293D02*
X010407Y021293D01*
X010100Y021600D01*
X007600Y021600D02*
X007600Y022600D01*
X006100Y022600D01*
X007600Y022600D02*
X007600Y028100D01*
X007100Y028600D01*
X006100Y028600D01*
D27*
X009100Y029600D03*
D28*
X009100Y031600D01*
X010540Y031600D01*
X011600Y031660D02*
X011660Y031600D01*
X011600Y031660D02*
X011600Y035100D01*
X012600Y035100D02*
X016100Y031600D01*
X021600Y031600D01*
X009100Y031600D02*
X008160Y031600D01*
X007100Y031660D02*
X007040Y031600D01*
X007100Y031660D02*
X007100Y035100D01*
X006100Y035100D02*
X004100Y033100D01*
X004100Y030100D01*
X005600Y028600D01*
X006100Y028600D01*
D29*
X017907Y012100D02*
X018100Y012100D01*
X033090Y007240D02*
X033090Y007045D01*
X033090Y007240D02*
X033350Y007183D01*
D30*
X020600Y010600D02*
X020600Y011100D01*
X020600Y016100D01*
X020600Y017600D01*
X020600Y022100D01*
X020600Y025600D01*
X021600Y026600D01*
X022100Y026600D02*
X022100Y031600D01*
X024100Y033600D01*
X025100Y033600D01*
D31*
X002100Y002100D03*
X034600Y002100D03*
X034600Y035100D03*
X002100Y035100D03*
M02*
