G75*
%MOIN*%
%OFA0B0*%
%FSLAX24Y24*%
%IPPOS*%
%LPD*%
%AMOC8*
5,1,8,0,0,1.08239X$1,22.5*
%
%ADD10C,0.0000*%
D10*
X000100Y000100D02*
X000100Y037096D01*
X036470Y037096D01*
X036470Y000100D01*
X000100Y000100D01*
X010911Y001250D02*
X010913Y001298D01*
X010919Y001346D01*
X010929Y001393D01*
X010942Y001439D01*
X010960Y001484D01*
X010980Y001528D01*
X011005Y001570D01*
X011033Y001609D01*
X011063Y001646D01*
X011097Y001680D01*
X011134Y001712D01*
X011172Y001741D01*
X011213Y001766D01*
X011256Y001788D01*
X011301Y001806D01*
X011347Y001820D01*
X011394Y001831D01*
X011442Y001838D01*
X011490Y001841D01*
X011538Y001840D01*
X011586Y001835D01*
X011634Y001826D01*
X011680Y001814D01*
X011725Y001797D01*
X011769Y001777D01*
X011811Y001754D01*
X011851Y001727D01*
X011889Y001697D01*
X011924Y001664D01*
X011956Y001628D01*
X011986Y001590D01*
X012012Y001549D01*
X012034Y001506D01*
X012054Y001462D01*
X012069Y001417D01*
X012081Y001370D01*
X012089Y001322D01*
X012093Y001274D01*
X012093Y001226D01*
X012089Y001178D01*
X012081Y001130D01*
X012069Y001083D01*
X012054Y001038D01*
X012034Y000994D01*
X012012Y000951D01*
X011986Y000910D01*
X011956Y000872D01*
X011924Y000836D01*
X011889Y000803D01*
X011851Y000773D01*
X011811Y000746D01*
X011769Y000723D01*
X011725Y000703D01*
X011680Y000686D01*
X011634Y000674D01*
X011586Y000665D01*
X011538Y000660D01*
X011490Y000659D01*
X011442Y000662D01*
X011394Y000669D01*
X011347Y000680D01*
X011301Y000694D01*
X011256Y000712D01*
X011213Y000734D01*
X011172Y000759D01*
X011134Y000788D01*
X011097Y000820D01*
X011063Y000854D01*
X011033Y000891D01*
X011005Y000930D01*
X010980Y000972D01*
X010960Y001016D01*
X010942Y001061D01*
X010929Y001107D01*
X010919Y001154D01*
X010913Y001202D01*
X010911Y001250D01*
X010911Y004950D02*
X010913Y004998D01*
X010919Y005046D01*
X010929Y005093D01*
X010942Y005139D01*
X010960Y005184D01*
X010980Y005228D01*
X011005Y005270D01*
X011033Y005309D01*
X011063Y005346D01*
X011097Y005380D01*
X011134Y005412D01*
X011172Y005441D01*
X011213Y005466D01*
X011256Y005488D01*
X011301Y005506D01*
X011347Y005520D01*
X011394Y005531D01*
X011442Y005538D01*
X011490Y005541D01*
X011538Y005540D01*
X011586Y005535D01*
X011634Y005526D01*
X011680Y005514D01*
X011725Y005497D01*
X011769Y005477D01*
X011811Y005454D01*
X011851Y005427D01*
X011889Y005397D01*
X011924Y005364D01*
X011956Y005328D01*
X011986Y005290D01*
X012012Y005249D01*
X012034Y005206D01*
X012054Y005162D01*
X012069Y005117D01*
X012081Y005070D01*
X012089Y005022D01*
X012093Y004974D01*
X012093Y004926D01*
X012089Y004878D01*
X012081Y004830D01*
X012069Y004783D01*
X012054Y004738D01*
X012034Y004694D01*
X012012Y004651D01*
X011986Y004610D01*
X011956Y004572D01*
X011924Y004536D01*
X011889Y004503D01*
X011851Y004473D01*
X011811Y004446D01*
X011769Y004423D01*
X011725Y004403D01*
X011680Y004386D01*
X011634Y004374D01*
X011586Y004365D01*
X011538Y004360D01*
X011490Y004359D01*
X011442Y004362D01*
X011394Y004369D01*
X011347Y004380D01*
X011301Y004394D01*
X011256Y004412D01*
X011213Y004434D01*
X011172Y004459D01*
X011134Y004488D01*
X011097Y004520D01*
X011063Y004554D01*
X011033Y004591D01*
X011005Y004630D01*
X010980Y004672D01*
X010960Y004716D01*
X010942Y004761D01*
X010929Y004807D01*
X010919Y004854D01*
X010913Y004902D01*
X010911Y004950D01*
X017411Y004950D02*
X017413Y004998D01*
X017419Y005046D01*
X017429Y005093D01*
X017442Y005139D01*
X017460Y005184D01*
X017480Y005228D01*
X017505Y005270D01*
X017533Y005309D01*
X017563Y005346D01*
X017597Y005380D01*
X017634Y005412D01*
X017672Y005441D01*
X017713Y005466D01*
X017756Y005488D01*
X017801Y005506D01*
X017847Y005520D01*
X017894Y005531D01*
X017942Y005538D01*
X017990Y005541D01*
X018038Y005540D01*
X018086Y005535D01*
X018134Y005526D01*
X018180Y005514D01*
X018225Y005497D01*
X018269Y005477D01*
X018311Y005454D01*
X018351Y005427D01*
X018389Y005397D01*
X018424Y005364D01*
X018456Y005328D01*
X018486Y005290D01*
X018512Y005249D01*
X018534Y005206D01*
X018554Y005162D01*
X018569Y005117D01*
X018581Y005070D01*
X018589Y005022D01*
X018593Y004974D01*
X018593Y004926D01*
X018589Y004878D01*
X018581Y004830D01*
X018569Y004783D01*
X018554Y004738D01*
X018534Y004694D01*
X018512Y004651D01*
X018486Y004610D01*
X018456Y004572D01*
X018424Y004536D01*
X018389Y004503D01*
X018351Y004473D01*
X018311Y004446D01*
X018269Y004423D01*
X018225Y004403D01*
X018180Y004386D01*
X018134Y004374D01*
X018086Y004365D01*
X018038Y004360D01*
X017990Y004359D01*
X017942Y004362D01*
X017894Y004369D01*
X017847Y004380D01*
X017801Y004394D01*
X017756Y004412D01*
X017713Y004434D01*
X017672Y004459D01*
X017634Y004488D01*
X017597Y004520D01*
X017563Y004554D01*
X017533Y004591D01*
X017505Y004630D01*
X017480Y004672D01*
X017460Y004716D01*
X017442Y004761D01*
X017429Y004807D01*
X017419Y004854D01*
X017413Y004902D01*
X017411Y004950D01*
X017411Y001250D02*
X017413Y001298D01*
X017419Y001346D01*
X017429Y001393D01*
X017442Y001439D01*
X017460Y001484D01*
X017480Y001528D01*
X017505Y001570D01*
X017533Y001609D01*
X017563Y001646D01*
X017597Y001680D01*
X017634Y001712D01*
X017672Y001741D01*
X017713Y001766D01*
X017756Y001788D01*
X017801Y001806D01*
X017847Y001820D01*
X017894Y001831D01*
X017942Y001838D01*
X017990Y001841D01*
X018038Y001840D01*
X018086Y001835D01*
X018134Y001826D01*
X018180Y001814D01*
X018225Y001797D01*
X018269Y001777D01*
X018311Y001754D01*
X018351Y001727D01*
X018389Y001697D01*
X018424Y001664D01*
X018456Y001628D01*
X018486Y001590D01*
X018512Y001549D01*
X018534Y001506D01*
X018554Y001462D01*
X018569Y001417D01*
X018581Y001370D01*
X018589Y001322D01*
X018593Y001274D01*
X018593Y001226D01*
X018589Y001178D01*
X018581Y001130D01*
X018569Y001083D01*
X018554Y001038D01*
X018534Y000994D01*
X018512Y000951D01*
X018486Y000910D01*
X018456Y000872D01*
X018424Y000836D01*
X018389Y000803D01*
X018351Y000773D01*
X018311Y000746D01*
X018269Y000723D01*
X018225Y000703D01*
X018180Y000686D01*
X018134Y000674D01*
X018086Y000665D01*
X018038Y000660D01*
X017990Y000659D01*
X017942Y000662D01*
X017894Y000669D01*
X017847Y000680D01*
X017801Y000694D01*
X017756Y000712D01*
X017713Y000734D01*
X017672Y000759D01*
X017634Y000788D01*
X017597Y000820D01*
X017563Y000854D01*
X017533Y000891D01*
X017505Y000930D01*
X017480Y000972D01*
X017460Y001016D01*
X017442Y001061D01*
X017429Y001107D01*
X017419Y001154D01*
X017413Y001202D01*
X017411Y001250D01*
X030909Y005198D02*
X030911Y005246D01*
X030917Y005294D01*
X030927Y005341D01*
X030940Y005387D01*
X030958Y005432D01*
X030978Y005476D01*
X031003Y005518D01*
X031031Y005557D01*
X031061Y005594D01*
X031095Y005628D01*
X031132Y005660D01*
X031170Y005689D01*
X031211Y005714D01*
X031254Y005736D01*
X031299Y005754D01*
X031345Y005768D01*
X031392Y005779D01*
X031440Y005786D01*
X031488Y005789D01*
X031536Y005788D01*
X031584Y005783D01*
X031632Y005774D01*
X031678Y005762D01*
X031723Y005745D01*
X031767Y005725D01*
X031809Y005702D01*
X031849Y005675D01*
X031887Y005645D01*
X031922Y005612D01*
X031954Y005576D01*
X031984Y005538D01*
X032010Y005497D01*
X032032Y005454D01*
X032052Y005410D01*
X032067Y005365D01*
X032079Y005318D01*
X032087Y005270D01*
X032091Y005222D01*
X032091Y005174D01*
X032087Y005126D01*
X032079Y005078D01*
X032067Y005031D01*
X032052Y004986D01*
X032032Y004942D01*
X032010Y004899D01*
X031984Y004858D01*
X031954Y004820D01*
X031922Y004784D01*
X031887Y004751D01*
X031849Y004721D01*
X031809Y004694D01*
X031767Y004671D01*
X031723Y004651D01*
X031678Y004634D01*
X031632Y004622D01*
X031584Y004613D01*
X031536Y004608D01*
X031488Y004607D01*
X031440Y004610D01*
X031392Y004617D01*
X031345Y004628D01*
X031299Y004642D01*
X031254Y004660D01*
X031211Y004682D01*
X031170Y004707D01*
X031132Y004736D01*
X031095Y004768D01*
X031061Y004802D01*
X031031Y004839D01*
X031003Y004878D01*
X030978Y004920D01*
X030958Y004964D01*
X030940Y005009D01*
X030927Y005055D01*
X030917Y005102D01*
X030911Y005150D01*
X030909Y005198D01*
X034609Y005198D02*
X034611Y005246D01*
X034617Y005294D01*
X034627Y005341D01*
X034640Y005387D01*
X034658Y005432D01*
X034678Y005476D01*
X034703Y005518D01*
X034731Y005557D01*
X034761Y005594D01*
X034795Y005628D01*
X034832Y005660D01*
X034870Y005689D01*
X034911Y005714D01*
X034954Y005736D01*
X034999Y005754D01*
X035045Y005768D01*
X035092Y005779D01*
X035140Y005786D01*
X035188Y005789D01*
X035236Y005788D01*
X035284Y005783D01*
X035332Y005774D01*
X035378Y005762D01*
X035423Y005745D01*
X035467Y005725D01*
X035509Y005702D01*
X035549Y005675D01*
X035587Y005645D01*
X035622Y005612D01*
X035654Y005576D01*
X035684Y005538D01*
X035710Y005497D01*
X035732Y005454D01*
X035752Y005410D01*
X035767Y005365D01*
X035779Y005318D01*
X035787Y005270D01*
X035791Y005222D01*
X035791Y005174D01*
X035787Y005126D01*
X035779Y005078D01*
X035767Y005031D01*
X035752Y004986D01*
X035732Y004942D01*
X035710Y004899D01*
X035684Y004858D01*
X035654Y004820D01*
X035622Y004784D01*
X035587Y004751D01*
X035549Y004721D01*
X035509Y004694D01*
X035467Y004671D01*
X035423Y004651D01*
X035378Y004634D01*
X035332Y004622D01*
X035284Y004613D01*
X035236Y004608D01*
X035188Y004607D01*
X035140Y004610D01*
X035092Y004617D01*
X035045Y004628D01*
X034999Y004642D01*
X034954Y004660D01*
X034911Y004682D01*
X034870Y004707D01*
X034832Y004736D01*
X034795Y004768D01*
X034761Y004802D01*
X034731Y004839D01*
X034703Y004878D01*
X034678Y004920D01*
X034658Y004964D01*
X034640Y005009D01*
X034627Y005055D01*
X034617Y005102D01*
X034611Y005150D01*
X034609Y005198D01*
X034609Y010698D02*
X034611Y010746D01*
X034617Y010794D01*
X034627Y010841D01*
X034640Y010887D01*
X034658Y010932D01*
X034678Y010976D01*
X034703Y011018D01*
X034731Y011057D01*
X034761Y011094D01*
X034795Y011128D01*
X034832Y011160D01*
X034870Y011189D01*
X034911Y011214D01*
X034954Y011236D01*
X034999Y011254D01*
X035045Y011268D01*
X035092Y011279D01*
X035140Y011286D01*
X035188Y011289D01*
X035236Y011288D01*
X035284Y011283D01*
X035332Y011274D01*
X035378Y011262D01*
X035423Y011245D01*
X035467Y011225D01*
X035509Y011202D01*
X035549Y011175D01*
X035587Y011145D01*
X035622Y011112D01*
X035654Y011076D01*
X035684Y011038D01*
X035710Y010997D01*
X035732Y010954D01*
X035752Y010910D01*
X035767Y010865D01*
X035779Y010818D01*
X035787Y010770D01*
X035791Y010722D01*
X035791Y010674D01*
X035787Y010626D01*
X035779Y010578D01*
X035767Y010531D01*
X035752Y010486D01*
X035732Y010442D01*
X035710Y010399D01*
X035684Y010358D01*
X035654Y010320D01*
X035622Y010284D01*
X035587Y010251D01*
X035549Y010221D01*
X035509Y010194D01*
X035467Y010171D01*
X035423Y010151D01*
X035378Y010134D01*
X035332Y010122D01*
X035284Y010113D01*
X035236Y010108D01*
X035188Y010107D01*
X035140Y010110D01*
X035092Y010117D01*
X035045Y010128D01*
X034999Y010142D01*
X034954Y010160D01*
X034911Y010182D01*
X034870Y010207D01*
X034832Y010236D01*
X034795Y010268D01*
X034761Y010302D01*
X034731Y010339D01*
X034703Y010378D01*
X034678Y010420D01*
X034658Y010464D01*
X034640Y010509D01*
X034627Y010555D01*
X034617Y010602D01*
X034611Y010650D01*
X034609Y010698D01*
X030909Y010698D02*
X030911Y010746D01*
X030917Y010794D01*
X030927Y010841D01*
X030940Y010887D01*
X030958Y010932D01*
X030978Y010976D01*
X031003Y011018D01*
X031031Y011057D01*
X031061Y011094D01*
X031095Y011128D01*
X031132Y011160D01*
X031170Y011189D01*
X031211Y011214D01*
X031254Y011236D01*
X031299Y011254D01*
X031345Y011268D01*
X031392Y011279D01*
X031440Y011286D01*
X031488Y011289D01*
X031536Y011288D01*
X031584Y011283D01*
X031632Y011274D01*
X031678Y011262D01*
X031723Y011245D01*
X031767Y011225D01*
X031809Y011202D01*
X031849Y011175D01*
X031887Y011145D01*
X031922Y011112D01*
X031954Y011076D01*
X031984Y011038D01*
X032010Y010997D01*
X032032Y010954D01*
X032052Y010910D01*
X032067Y010865D01*
X032079Y010818D01*
X032087Y010770D01*
X032091Y010722D01*
X032091Y010674D01*
X032087Y010626D01*
X032079Y010578D01*
X032067Y010531D01*
X032052Y010486D01*
X032032Y010442D01*
X032010Y010399D01*
X031984Y010358D01*
X031954Y010320D01*
X031922Y010284D01*
X031887Y010251D01*
X031849Y010221D01*
X031809Y010194D01*
X031767Y010171D01*
X031723Y010151D01*
X031678Y010134D01*
X031632Y010122D01*
X031584Y010113D01*
X031536Y010108D01*
X031488Y010107D01*
X031440Y010110D01*
X031392Y010117D01*
X031345Y010128D01*
X031299Y010142D01*
X031254Y010160D01*
X031211Y010182D01*
X031170Y010207D01*
X031132Y010236D01*
X031095Y010268D01*
X031061Y010302D01*
X031031Y010339D01*
X031003Y010378D01*
X030978Y010420D01*
X030958Y010464D01*
X030940Y010509D01*
X030927Y010555D01*
X030917Y010602D01*
X030911Y010650D01*
X030909Y010698D01*
X030909Y016198D02*
X030911Y016246D01*
X030917Y016294D01*
X030927Y016341D01*
X030940Y016387D01*
X030958Y016432D01*
X030978Y016476D01*
X031003Y016518D01*
X031031Y016557D01*
X031061Y016594D01*
X031095Y016628D01*
X031132Y016660D01*
X031170Y016689D01*
X031211Y016714D01*
X031254Y016736D01*
X031299Y016754D01*
X031345Y016768D01*
X031392Y016779D01*
X031440Y016786D01*
X031488Y016789D01*
X031536Y016788D01*
X031584Y016783D01*
X031632Y016774D01*
X031678Y016762D01*
X031723Y016745D01*
X031767Y016725D01*
X031809Y016702D01*
X031849Y016675D01*
X031887Y016645D01*
X031922Y016612D01*
X031954Y016576D01*
X031984Y016538D01*
X032010Y016497D01*
X032032Y016454D01*
X032052Y016410D01*
X032067Y016365D01*
X032079Y016318D01*
X032087Y016270D01*
X032091Y016222D01*
X032091Y016174D01*
X032087Y016126D01*
X032079Y016078D01*
X032067Y016031D01*
X032052Y015986D01*
X032032Y015942D01*
X032010Y015899D01*
X031984Y015858D01*
X031954Y015820D01*
X031922Y015784D01*
X031887Y015751D01*
X031849Y015721D01*
X031809Y015694D01*
X031767Y015671D01*
X031723Y015651D01*
X031678Y015634D01*
X031632Y015622D01*
X031584Y015613D01*
X031536Y015608D01*
X031488Y015607D01*
X031440Y015610D01*
X031392Y015617D01*
X031345Y015628D01*
X031299Y015642D01*
X031254Y015660D01*
X031211Y015682D01*
X031170Y015707D01*
X031132Y015736D01*
X031095Y015768D01*
X031061Y015802D01*
X031031Y015839D01*
X031003Y015878D01*
X030978Y015920D01*
X030958Y015964D01*
X030940Y016009D01*
X030927Y016055D01*
X030917Y016102D01*
X030911Y016150D01*
X030909Y016198D01*
X034609Y016198D02*
X034611Y016246D01*
X034617Y016294D01*
X034627Y016341D01*
X034640Y016387D01*
X034658Y016432D01*
X034678Y016476D01*
X034703Y016518D01*
X034731Y016557D01*
X034761Y016594D01*
X034795Y016628D01*
X034832Y016660D01*
X034870Y016689D01*
X034911Y016714D01*
X034954Y016736D01*
X034999Y016754D01*
X035045Y016768D01*
X035092Y016779D01*
X035140Y016786D01*
X035188Y016789D01*
X035236Y016788D01*
X035284Y016783D01*
X035332Y016774D01*
X035378Y016762D01*
X035423Y016745D01*
X035467Y016725D01*
X035509Y016702D01*
X035549Y016675D01*
X035587Y016645D01*
X035622Y016612D01*
X035654Y016576D01*
X035684Y016538D01*
X035710Y016497D01*
X035732Y016454D01*
X035752Y016410D01*
X035767Y016365D01*
X035779Y016318D01*
X035787Y016270D01*
X035791Y016222D01*
X035791Y016174D01*
X035787Y016126D01*
X035779Y016078D01*
X035767Y016031D01*
X035752Y015986D01*
X035732Y015942D01*
X035710Y015899D01*
X035684Y015858D01*
X035654Y015820D01*
X035622Y015784D01*
X035587Y015751D01*
X035549Y015721D01*
X035509Y015694D01*
X035467Y015671D01*
X035423Y015651D01*
X035378Y015634D01*
X035332Y015622D01*
X035284Y015613D01*
X035236Y015608D01*
X035188Y015607D01*
X035140Y015610D01*
X035092Y015617D01*
X035045Y015628D01*
X034999Y015642D01*
X034954Y015660D01*
X034911Y015682D01*
X034870Y015707D01*
X034832Y015736D01*
X034795Y015768D01*
X034761Y015802D01*
X034731Y015839D01*
X034703Y015878D01*
X034678Y015920D01*
X034658Y015964D01*
X034640Y016009D01*
X034627Y016055D01*
X034617Y016102D01*
X034611Y016150D01*
X034609Y016198D01*
X034609Y021698D02*
X034611Y021746D01*
X034617Y021794D01*
X034627Y021841D01*
X034640Y021887D01*
X034658Y021932D01*
X034678Y021976D01*
X034703Y022018D01*
X034731Y022057D01*
X034761Y022094D01*
X034795Y022128D01*
X034832Y022160D01*
X034870Y022189D01*
X034911Y022214D01*
X034954Y022236D01*
X034999Y022254D01*
X035045Y022268D01*
X035092Y022279D01*
X035140Y022286D01*
X035188Y022289D01*
X035236Y022288D01*
X035284Y022283D01*
X035332Y022274D01*
X035378Y022262D01*
X035423Y022245D01*
X035467Y022225D01*
X035509Y022202D01*
X035549Y022175D01*
X035587Y022145D01*
X035622Y022112D01*
X035654Y022076D01*
X035684Y022038D01*
X035710Y021997D01*
X035732Y021954D01*
X035752Y021910D01*
X035767Y021865D01*
X035779Y021818D01*
X035787Y021770D01*
X035791Y021722D01*
X035791Y021674D01*
X035787Y021626D01*
X035779Y021578D01*
X035767Y021531D01*
X035752Y021486D01*
X035732Y021442D01*
X035710Y021399D01*
X035684Y021358D01*
X035654Y021320D01*
X035622Y021284D01*
X035587Y021251D01*
X035549Y021221D01*
X035509Y021194D01*
X035467Y021171D01*
X035423Y021151D01*
X035378Y021134D01*
X035332Y021122D01*
X035284Y021113D01*
X035236Y021108D01*
X035188Y021107D01*
X035140Y021110D01*
X035092Y021117D01*
X035045Y021128D01*
X034999Y021142D01*
X034954Y021160D01*
X034911Y021182D01*
X034870Y021207D01*
X034832Y021236D01*
X034795Y021268D01*
X034761Y021302D01*
X034731Y021339D01*
X034703Y021378D01*
X034678Y021420D01*
X034658Y021464D01*
X034640Y021509D01*
X034627Y021555D01*
X034617Y021602D01*
X034611Y021650D01*
X034609Y021698D01*
X030909Y021698D02*
X030911Y021746D01*
X030917Y021794D01*
X030927Y021841D01*
X030940Y021887D01*
X030958Y021932D01*
X030978Y021976D01*
X031003Y022018D01*
X031031Y022057D01*
X031061Y022094D01*
X031095Y022128D01*
X031132Y022160D01*
X031170Y022189D01*
X031211Y022214D01*
X031254Y022236D01*
X031299Y022254D01*
X031345Y022268D01*
X031392Y022279D01*
X031440Y022286D01*
X031488Y022289D01*
X031536Y022288D01*
X031584Y022283D01*
X031632Y022274D01*
X031678Y022262D01*
X031723Y022245D01*
X031767Y022225D01*
X031809Y022202D01*
X031849Y022175D01*
X031887Y022145D01*
X031922Y022112D01*
X031954Y022076D01*
X031984Y022038D01*
X032010Y021997D01*
X032032Y021954D01*
X032052Y021910D01*
X032067Y021865D01*
X032079Y021818D01*
X032087Y021770D01*
X032091Y021722D01*
X032091Y021674D01*
X032087Y021626D01*
X032079Y021578D01*
X032067Y021531D01*
X032052Y021486D01*
X032032Y021442D01*
X032010Y021399D01*
X031984Y021358D01*
X031954Y021320D01*
X031922Y021284D01*
X031887Y021251D01*
X031849Y021221D01*
X031809Y021194D01*
X031767Y021171D01*
X031723Y021151D01*
X031678Y021134D01*
X031632Y021122D01*
X031584Y021113D01*
X031536Y021108D01*
X031488Y021107D01*
X031440Y021110D01*
X031392Y021117D01*
X031345Y021128D01*
X031299Y021142D01*
X031254Y021160D01*
X031211Y021182D01*
X031170Y021207D01*
X031132Y021236D01*
X031095Y021268D01*
X031061Y021302D01*
X031031Y021339D01*
X031003Y021378D01*
X030978Y021420D01*
X030958Y021464D01*
X030940Y021509D01*
X030927Y021555D01*
X030917Y021602D01*
X030911Y021650D01*
X030909Y021698D01*
M02*
